<svg version="1.1" id="Layer_1" xmlns="http://www.w3.org/2000/svg" xmlns:xlink="http://www.w3.org/1999/xlink" x="0px" y="0px"
	 width="100%" viewBox="0 0 1440 1440" enable-background="new 0 0 1440 1440" xml:space="preserve">
<path fill="#4FD9FB" opacity="1.000000" stroke="none" 
	d="
M676.000000,0.999997 
	C703.354248,1.000000 730.708435,1.000000 758.191650,1.353244 
	C759.166443,2.135355 759.988831,2.879898 760.861755,2.944841 
	C770.868774,3.689345 780.894775,4.196115 790.893005,5.037116 
	C800.838501,5.873693 810.787903,6.793674 820.678894,8.104929 
	C827.572021,9.018754 834.369812,10.653146 841.209717,11.968081 
	C846.449829,12.975469 851.710938,13.886163 856.924866,15.015129 
	C872.060913,18.292545 887.245239,21.384644 902.278870,25.084671 
	C912.424255,27.581621 922.399597,30.820063 932.355591,34.023270 
	C945.354980,38.205650 958.357178,42.415958 971.176025,47.111298 
	C982.107544,51.115326 992.801758,55.773655 1003.562561,60.234997 
	C1010.662537,63.178551 1017.891357,65.902237 1024.715576,69.400978 
	C1038.252441,76.341217 1051.591187,83.673332 1064.932373,90.988022 
	C1075.690552,96.886444 1086.625366,102.538002 1096.953003,109.127853 
	C1110.487915,117.764343 1123.699951,126.944992 1136.685669,136.393387 
	C1149.367188,145.620438 1161.784912,155.238495 1173.947266,165.140747 
	C1182.661377,172.235397 1190.854858,179.982941 1199.116699,187.616547 
	C1210.110107,197.774094 1221.338989,207.722000 1231.737183,218.466019 
	C1242.379028,229.461868 1252.382690,241.106781 1262.222656,252.839111 
	C1273.567261,266.365356 1284.955566,279.912964 1295.344971,294.165527 
	C1305.282104,307.797577 1314.156372,322.223969 1323.137085,336.527740 
	C1331.583008,349.979858 1340.085449,363.444061 1347.601562,377.420074 
	C1356.270630,393.540436 1363.979858,410.182404 1371.911987,426.691071 
	C1374.887451,432.883728 1377.502563,439.267822 1379.950928,445.690887 
	C1383.242188,454.325134 1386.211060,463.082306 1389.321899,471.785370 
	C1392.557373,480.837830 1396.035522,489.812225 1398.973145,498.960205 
	C1402.371216,509.541412 1405.357910,520.257019 1408.405273,530.947876 
	C1410.699097,538.995361 1413.067627,547.036377 1414.928467,555.188599 
	C1417.018188,564.343567 1418.611694,573.613342 1420.353638,582.845886 
	C1422.603882,594.772705 1425.123779,606.662415 1426.896362,618.661377 
	C1428.401489,628.849792 1429.139771,639.159912 1429.988159,649.435059 
	C1431.420776,666.787292 1433.786255,684.156921 1433.747192,701.514771 
	C1433.683594,729.795959 1432.091187,758.077332 1430.937134,786.350159 
	C1430.636963,793.704041 1429.842041,801.065430 1428.797119,808.354919 
	C1427.069458,820.408508 1425.122559,832.437012 1422.953369,844.419189 
	C1420.852417,856.025330 1418.404053,867.569824 1416.014526,879.122131 
	C1414.310059,887.362854 1412.813477,895.672119 1410.569458,903.769348 
	C1407.737793,913.987244 1404.211548,924.011658 1401.038818,934.136475 
	C1398.297974,942.882690 1395.916382,951.753174 1392.856079,960.384460 
	C1389.587402,969.603760 1385.732178,978.616272 1382.091064,987.702209 
	C1377.896240,998.169067 1373.909180,1008.729370 1369.360107,1019.040894 
	C1365.232422,1028.397217 1360.608887,1037.544556 1355.952637,1046.655518 
	C1350.541016,1057.244019 1345.152710,1067.864014 1339.210693,1078.156616 
	C1332.512329,1089.759033 1325.378906,1101.121826 1318.121704,1112.387207 
	C1310.437988,1124.314697 1302.823975,1136.330078 1294.375610,1147.710205 
	C1285.418823,1159.774902 1275.651245,1171.250732 1265.987915,1182.774170 
	C1257.128418,1193.339233 1248.382812,1204.058716 1238.792725,1213.939331 
	C1221.047607,1232.222412 1203.462524,1250.702148 1183.281006,1266.465942 
	C1174.677490,1273.185913 1167.073975,1281.199463 1158.384277,1287.792480 
	C1145.010620,1297.938721 1131.304443,1307.684326 1117.348877,1317.015869 
	C1102.039795,1327.252441 1086.637451,1337.443726 1070.628296,1346.511963 
	C1055.311890,1355.187866 1039.259888,1362.596924 1023.351990,1370.187134 
	C1010.224487,1376.450439 996.959900,1382.465576 983.526855,1388.038086 
	C969.997559,1393.650391 956.322205,1398.983887 942.456238,1403.689331 
	C929.966614,1407.927734 917.151184,1411.217529 904.442383,1414.793823 
	C897.762756,1416.673340 891.036560,1418.414307 884.272705,1419.961426 
	C874.191406,1422.267334 864.070618,1424.406616 853.942627,1426.500122 
	C847.752258,1427.779785 841.554810,1429.142334 835.293213,1429.935913 
	C822.977051,1431.496948 810.626099,1432.814331 798.267334,1434.001221 
	C779.823975,1435.772461 761.376892,1438.478394 742.903259,1438.731934 
	C715.734497,1439.104858 688.539917,1437.698364 661.358582,1436.968018 
	C656.930725,1436.848999 652.487488,1436.510010 648.097412,1435.926270 
	C633.895691,1434.038086 619.697266,1432.108765 605.532776,1429.962524 
	C594.628906,1428.310303 583.747375,1426.468506 572.916077,1424.396606 
	C567.067261,1423.277832 561.369629,1421.391479 555.558960,1420.044922 
	C547.531067,1418.184570 539.369934,1416.838501 531.432800,1414.663330 
	C522.297302,1412.159790 513.319275,1409.066650 504.317200,1406.095093 
	C490.922852,1401.673462 477.483856,1397.364502 464.225525,1392.561401 
	C455.683289,1389.466797 447.411926,1385.616577 439.052399,1382.027466 
	C426.400452,1376.595337 413.439240,1371.753174 401.223145,1365.467529 
	C383.893616,1356.550659 366.959717,1346.824829 350.164551,1336.922607 
	C337.399292,1329.396362 324.777924,1321.529663 312.700226,1312.958374 
	C297.909790,1302.461914 283.552002,1291.323730 269.384308,1279.991455 
	C257.318756,1270.340698 245.421585,1260.415161 234.119614,1249.891724 
	C221.979752,1238.588379 210.318024,1226.728638 199.004242,1214.592773 
	C186.997131,1201.713135 175.329956,1188.484009 164.101028,1174.921631 
	C154.585648,1163.428833 145.763443,1151.348877 136.914078,1139.322876 
	C131.904053,1132.514648 127.380081,1125.342163 122.776405,1118.243286 
	C117.101868,1109.493530 111.364265,1100.773438 106.037766,1091.812378 
	C100.609184,1082.679443 95.653748,1073.265747 90.477577,1063.982422 
	C85.677879,1055.374146 80.639641,1046.889526 76.126297,1038.134033 
	C72.993416,1032.056641 70.571465,1025.612549 67.832962,1019.331848 
	C64.221573,1011.049194 60.434170,1002.837646 57.048702,994.463623 
	C53.438778,985.534424 50.079109,976.497620 46.850822,967.422241 
	C43.725784,958.636963 40.856594,949.759277 37.967339,940.892029 
	C35.029774,931.876404 32.080967,922.860962 29.371946,913.775452 
	C27.390717,907.130859 25.553793,900.424500 24.069542,893.654297 
	C21.230921,880.706360 18.658676,867.699524 16.036932,854.704773 
	C14.626654,847.714722 12.967562,840.746155 12.083707,833.684875 
	C10.459682,820.710388 9.962094,807.569519 7.836294,794.689270 
	C4.761980,776.061951 4.695213,757.304993 4.100571,738.573669 
	C3.609029,723.090027 3.999688,707.578491 4.000545,692.079285 
	C4.000609,690.912781 3.933536,689.740173 4.025585,688.580627 
	C5.337403,672.054504 6.570708,655.521179 8.048293,639.009705 
	C8.657850,632.198120 9.689557,625.416870 10.734109,618.653442 
	C12.045995,610.158936 13.479927,601.680847 15.022527,593.225159 
	C16.822187,583.360413 18.643923,573.494873 20.739477,563.690308 
	C22.627768,554.855469 24.885332,546.099121 27.005779,537.314392 
	C28.483438,531.192627 29.715666,524.992065 31.572922,518.986084 
	C34.473980,509.604462 37.785011,500.348694 40.970882,491.056305 
	C45.067646,479.106995 48.717419,466.973083 53.464394,455.286163 
	C59.131008,441.335052 65.583374,427.691864 72.010406,414.063873 
	C78.974731,399.296631 85.721199,384.378540 93.628914,370.117432 
	C102.081100,354.874390 111.581245,340.195374 120.997368,325.509583 
	C127.823967,314.862549 135.298264,304.632263 142.408966,294.165344 
	C147.054367,287.327362 151.427902,280.299744 156.233017,273.578583 
	C157.458572,271.864319 160.220474,271.308289 161.659851,269.676239 
	C166.713531,263.946228 171.351379,257.849030 176.414978,252.128357 
	C188.025894,239.010742 199.314392,225.557053 211.628906,213.126587 
	C225.061798,199.567245 239.192123,186.649109 253.598679,174.118576 
	C267.043823,162.424255 280.853790,151.063339 295.228363,140.546906 
	C310.916351,129.069595 327.243683,118.426193 343.655701,107.990791 
	C357.365417,99.273628 371.296112,90.800537 385.683929,83.281319 
	C401.138000,75.204857 417.039520,67.893303 433.109650,61.110031 
	C452.919861,52.748035 473.008270,45.013088 493.172180,37.535004 
	C502.640137,34.023674 512.547729,31.682224 522.289978,28.930786 
	C531.585999,26.305380 540.899170,23.731018 550.254761,21.328823 
	C558.987305,19.086596 567.731079,16.826281 576.568542,15.069776 
	C587.856506,12.826197 599.226990,10.978864 610.592529,9.150878 
	C620.078735,7.625170 629.573608,5.996102 639.128967,5.097400 
	C650.603455,4.018201 662.148743,3.702320 673.653931,2.916832 
	C674.475708,2.860725 675.219788,1.665541 676.000000,0.999997 
M1355.388062,825.099731 
	C1357.591064,809.969238 1360.245361,794.887024 1361.869019,779.694641 
	C1363.458862,764.817017 1364.412842,749.839722 1364.865234,734.882568 
	C1365.210449,723.474670 1364.447266,712.025208 1363.973633,700.602661 
	C1363.433472,687.577759 1362.867432,674.547791 1361.924805,661.548096 
	C1361.359375,653.750549 1360.164429,645.990662 1359.048950,638.243164 
	C1357.821777,629.720825 1356.462769,621.214355 1354.976807,612.733276 
	C1353.074829,601.877930 1351.211792,591.007507 1348.921265,580.230835 
	C1346.443115,568.571533 1343.902100,556.895691 1340.633667,545.442444 
	C1337.243774,533.563354 1333.062622,521.903381 1329.020264,510.219208 
	C1324.794434,498.004425 1320.737427,485.704987 1315.847290,473.753235 
	C1310.324097,460.253693 1304.186401,446.989532 1297.882202,433.830719 
	C1292.699585,423.013031 1287.171265,412.336060 1281.266724,401.896149 
	C1275.289307,391.327637 1268.914795,380.960754 1262.251709,370.809174 
	C1254.894043,359.599152 1247.204956,348.592529 1239.304321,337.756866 
	C1230.751831,326.027405 1222.048340,314.387543 1212.925659,303.100769 
	C1205.062378,293.372162 1196.775391,283.951935 1188.204468,274.838501 
	C1178.847168,264.888855 1169.232910,255.138641 1159.180420,245.900238 
	C1152.922485,240.148941 1145.903442,235.107849 1138.755981,230.472778 
	C1130.447998,225.085098 1121.744629,220.267700 1112.996338,215.609039 
	C1102.818115,210.188873 1092.700928,204.470184 1082.028320,200.204254 
	C1064.249512,193.097992 1046.172119,186.673584 1027.981812,180.687195 
	C1017.007629,177.075623 1005.598206,174.771362 994.356323,171.992783 
	C980.623962,168.598679 966.839355,165.691254 952.617737,164.894913 
	C935.736572,163.949661 918.912231,161.777878 902.026794,161.196625 
	C891.045959,160.818634 879.998047,162.297363 868.984070,163.005478 
	C859.308228,163.627533 849.536133,163.676605 839.987793,165.151657 
	C823.832825,167.647278 807.632446,170.319778 791.801025,174.307190 
	C775.455139,178.424179 759.275635,183.528610 743.490356,189.446747 
	C729.425049,194.720001 716.142700,202.042526 702.253906,207.835205 
	C683.406677,215.695938 666.301941,226.610611 649.213013,237.488892 
	C638.495056,244.311584 628.383972,252.151093 618.384155,260.021759 
	C606.800476,269.139069 595.282776,278.401428 584.392151,288.320648 
	C573.599854,298.150238 563.485413,308.742340 553.338867,319.255890 
	C546.697388,326.137665 540.262695,333.258240 534.213257,340.662292 
	C526.481079,350.125732 519.004150,359.818237 511.826111,369.708832 
	C501.702087,383.658844 491.138733,397.390472 482.265991,412.120697 
	C472.851898,427.749542 464.610565,444.166290 456.938751,460.739685 
	C449.572845,476.652222 443.135803,493.040161 437.141357,509.528503 
	C431.926544,523.872498 427.798798,538.618042 423.392517,553.246948 
	C421.349243,560.030518 419.563812,566.910339 418.060303,573.833191 
	C416.172943,582.523254 414.655090,591.294922 413.051910,600.044983 
	C411.648163,607.706238 410.095947,615.352722 409.064056,623.066589 
	C407.785217,632.626160 406.863770,642.238342 405.987762,651.846008 
	C404.572693,667.365967 402.316559,682.894836 402.225006,698.430664 
	C402.070740,724.605286 403.333649,750.788269 404.000061,776.967773 
	C404.016998,777.634033 403.960663,778.309998 404.053162,778.965271 
	C405.691406,790.571350 407.246613,802.190430 409.028229,813.774658 
	C410.803528,825.318176 412.621643,836.861450 414.772736,848.338867 
	C416.588867,858.029175 418.826843,867.643799 421.034363,877.256042 
	C422.510895,883.685425 424.099182,890.098755 425.930267,896.434631 
	C428.124329,904.026672 430.511505,911.568481 433.028931,919.060181 
	C436.718628,930.040344 440.208557,941.112610 444.505676,951.856812 
	C448.871613,962.773193 453.940369,973.422119 459.019257,984.036072 
	C464.327667,995.129700 469.435516,1006.384949 475.684174,1016.946472 
	C483.378784,1029.951782 492.017395,1042.411621 500.527710,1054.916748 
	C505.824097,1062.699097 511.410309,1070.310303 517.272522,1077.675171 
	C526.469666,1089.230103 535.949524,1100.562500 545.430054,1111.888306 
	C550.213257,1117.602539 555.013794,1123.339844 560.245850,1128.632324 
	C568.399841,1136.880615 576.848694,1144.843750 585.322937,1152.766846 
	C591.851746,1158.870972 598.307312,1165.118042 605.339539,1170.604126 
	C616.064209,1178.970581 627.155579,1186.881348 638.284180,1194.711548 
	C648.525940,1201.917847 658.668396,1209.378174 669.500977,1215.601562 
	C681.544678,1222.520630 694.177429,1228.476440 706.814697,1234.283691 
	C720.043640,1240.362549 733.345459,1246.435669 747.046936,1251.294556 
	C763.700745,1257.200439 780.628235,1262.549438 797.768982,1266.802856 
	C812.680481,1270.503052 827.984436,1272.875610 843.241882,1274.857300 
	C858.682251,1276.862915 874.260315,1277.978760 889.812927,1278.888550 
	C899.776794,1279.471558 909.835999,1279.475708 919.794373,1278.835449 
	C932.015198,1278.049683 944.211365,1276.583862 956.351990,1274.926880 
	C968.721313,1273.238403 981.058655,1271.212036 993.317017,1268.851074 
	C1001.064880,1267.358521 1008.671326,1265.085938 1016.288940,1262.974731 
	C1025.420410,1260.444214 1034.597290,1258.011475 1043.565308,1254.977173 
	C1051.158325,1252.408203 1058.516846,1249.125977 1065.915894,1246.009277 
	C1076.216309,1241.670288 1086.677612,1237.633179 1096.668457,1232.660156 
	C1108.926025,1226.558960 1120.579956,1219.244385 1132.840454,1213.149780 
	C1147.474365,1205.875244 1159.290527,1195.091187 1170.511353,1183.708984 
	C1183.141357,1170.897461 1195.354492,1157.616699 1206.977295,1143.886475 
	C1219.232544,1129.409180 1230.936035,1114.425659 1242.199707,1099.160889 
	C1250.477539,1087.942505 1257.847412,1076.033447 1265.274048,1064.213623 
	C1272.491211,1052.727173 1279.811890,1041.248413 1286.098511,1029.248535 
	C1294.344238,1013.509094 1301.942383,997.406128 1309.218140,981.189880 
	C1315.536377,967.107788 1321.502930,952.825012 1326.730835,938.308960 
	C1331.791748,924.257263 1335.756104,909.808228 1340.115356,895.507263 
	C1342.180298,888.733276 1344.314819,881.961243 1345.928711,875.073669 
	C1348.030029,866.105957 1349.754395,857.044556 1351.436035,847.985535 
	C1352.795776,840.661011 1353.852173,833.280151 1355.388062,825.099731 
M662.984619,148.501678 
	C673.323181,143.491791 683.431580,137.915359 694.052856,133.601471 
	C711.038330,126.702759 728.165405,120.023407 745.607605,114.418404 
	C760.158020,109.742691 775.178223,106.435104 790.120056,103.103340 
	C800.552917,100.776985 811.178711,99.255112 821.765869,97.697136 
	C833.691711,95.942162 845.646973,94.317017 857.635437,93.082558 
	C865.498413,92.272911 873.442993,92.256088 882.020020,91.852730 
	C758.196533,60.356087 636.006714,63.788784 515.538147,104.129898 
	C397.585815,143.628387 299.574829,212.741501 220.203705,308.410339 
	C221.093033,309.040100 222.003403,309.452850 222.589981,310.141449 
	C224.781952,312.714661 225.898163,316.320557 230.407547,316.340912 
	C232.239517,316.349152 235.035583,317.538940 235.717926,318.982758 
	C238.207489,324.250519 242.353455,326.543091 246.660004,327.193604 
	C247.831146,328.944000 248.336823,330.237579 249.276352,330.987793 
	C251.022949,332.382294 253.563110,333.055786 254.822464,334.740112 
	C260.083832,341.776917 267.514221,346.060394 274.443024,351.004059 
	C275.312317,351.624268 276.521790,352.150299 276.898743,353.014404 
	C278.989838,357.808044 285.925568,357.342468 287.399384,362.924805 
	C287.723328,364.151733 289.728851,364.934753 290.959961,365.922211 
	C291.846008,366.930634 293.766052,366.657104 294.629517,367.485229 
	C298.298340,371.003906 301.535217,374.970612 305.171448,378.526642 
	C307.137451,380.449310 309.583527,381.883209 311.825195,383.520996 
	C313.432587,384.695435 315.023834,385.898865 316.697296,386.972382 
	C317.329254,387.377777 318.750488,387.329529 318.830475,387.699982 
	C319.757782,391.995148 323.159943,390.641907 325.880676,391.037292 
	C329.055634,391.498688 333.872864,391.236481 334.975311,393.081848 
	C336.994781,396.462189 339.701202,396.373596 342.421173,396.953705 
	C346.836670,397.895355 351.323975,398.500214 355.780975,399.247253 
	C355.921631,401.081512 356.642517,402.527344 357.738037,402.915344 
	C364.396606,405.273438 371.876923,405.596130 377.093262,411.433929 
	C378.017212,412.467957 380.072906,412.463562 381.580688,413.008667 
	C384.724854,414.145355 388.077972,414.944794 390.915527,416.613464 
	C393.227997,417.973297 394.915375,420.396088 397.348694,422.813171 
	C402.063995,413.212555 405.897278,404.356659 410.634216,396.013855 
	C417.422058,384.058868 424.696533,372.368134 432.089417,360.772522 
	C438.168121,351.238251 444.280365,341.667053 451.167236,332.719910 
	C461.745483,318.977051 472.886475,305.659882 484.006805,292.344269 
	C492.179962,282.557617 500.373352,272.749359 509.159546,263.523865 
	C518.343384,253.880707 528.110901,244.776443 537.876099,235.708923 
	C546.885925,227.342789 555.768494,218.728928 565.532776,211.311050 
	C581.624939,199.085938 597.998962,187.141830 614.973938,176.195526 
	C630.265747,166.334595 646.523804,157.971985 662.984619,148.501678 
M390.951691,1279.455933 
	C394.024963,1281.193604 397.078033,1282.968140 400.175201,1284.662109 
	C410.313110,1290.207520 420.312866,1296.033936 430.654694,1301.170532 
	C443.031281,1307.317871 455.575256,1313.171997 468.289276,1318.583008 
	C479.777283,1323.472534 491.569672,1327.654053 503.273102,1332.026611 
	C508.241333,1333.882812 513.318359,1335.450195 518.357910,1337.112549 
	C527.363220,1340.083130 536.301025,1343.293823 545.411621,1345.898926 
	C553.159241,1348.114258 561.099854,1349.665039 568.973816,1351.426270 
	C581.904358,1354.318359 594.765625,1357.639771 607.812866,1359.857910 
	C621.309143,1362.152466 634.969910,1363.565674 648.599548,1364.966797 
	C663.931641,1366.542969 679.304382,1368.701660 694.668274,1368.775146 
	C722.173828,1368.906860 749.685974,1367.668457 777.195068,1366.989624 
	C778.011414,1366.969604 778.826355,1366.817749 779.638062,1366.700073 
	C790.423096,1365.136353 801.213501,1363.607910 811.990173,1361.988647 
	C822.105042,1360.468750 832.226440,1358.974365 842.304688,1357.234863 
	C849.303833,1356.026855 856.258301,1354.527466 863.188049,1352.960693 
	C868.339600,1351.796021 873.419434,1350.314087 878.531189,1348.973389 
	C874.284241,1347.971924 870.253479,1348.310181 866.298096,1347.907593 
	C855.097290,1346.767334 843.914124,1345.425781 832.749084,1343.970703 
	C822.103333,1342.583252 811.431702,1341.267334 800.878662,1339.334595 
	C791.705505,1337.654541 782.648376,1335.289062 773.601501,1332.985107 
	C763.012634,1330.288330 752.341736,1327.781616 741.978210,1324.367310 
	C729.923523,1320.395874 717.931091,1316.056641 706.326965,1310.935791 
	C686.099243,1302.009766 665.904907,1292.917358 646.246277,1282.823975 
	C633.037964,1276.042480 620.552612,1267.753418 608.157043,1259.517090 
	C596.498108,1251.770020 585.113525,1243.548462 574.097961,1234.911255 
	C562.200073,1225.582275 550.650879,1215.774658 539.366089,1205.708984 
	C531.360168,1198.567749 524.145569,1190.546387 516.358948,1183.147949 
	C514.121765,1181.022217 511.124084,1179.696655 508.202972,1177.830444 
	C508.223938,1177.728638 508.376343,1176.988403 508.692535,1175.452393 
	C506.175476,1176.237305 504.090424,1176.952515 501.969025,1177.535400 
	C497.670715,1178.716309 493.382874,1179.966064 489.028961,1180.899048 
	C487.124542,1181.307129 485.064575,1180.936279 483.081879,1181.042847 
	C477.815887,1181.325806 473.955902,1188.717041 467.652679,1184.138306 
	C467.517273,1184.039917 466.740601,1185.109253 466.153900,1185.302490 
	C461.280304,1186.908081 456.359467,1189.675659 451.496338,1189.591187 
	C447.659363,1189.524780 444.752533,1190.328613 441.598053,1191.850708 
	C439.183624,1193.015747 435.532135,1195.513062 434.364288,1194.686523 
	C429.488739,1191.235352 427.454712,1195.876099 424.237457,1197.174316 
	C421.448608,1198.299438 418.523132,1199.152832 415.589722,1199.830811 
	C413.387421,1200.339722 410.953278,1200.009033 408.842346,1200.712524 
	C405.403564,1201.858276 402.224304,1203.780640 398.787842,1204.936035 
	C395.008392,1206.206543 390.990021,1206.767090 387.211670,1208.040161 
	C384.347931,1209.005005 379.978302,1212.333252 379.254425,1211.614258 
	C376.362946,1208.741699 374.544525,1211.360229 372.638702,1212.083740 
	C367.853821,1213.900024 363.658783,1217.514648 357.923035,1216.136719 
	C357.085266,1215.935425 355.928314,1217.073608 354.915985,1217.585938 
	C352.646729,1218.734375 350.463989,1220.127808 348.086761,1220.973877 
	C342.952362,1222.801270 337.712280,1224.330444 332.526398,1226.015381 
	C330.033630,1226.825439 327.583405,1227.769287 325.079895,1228.542480 
	C323.476807,1229.037598 321.811707,1229.331665 319.039368,1229.982178 
	C342.421387,1248.771729 365.853790,1264.652100 390.951691,1279.455933 
M217.991104,960.467041 
	C217.332947,958.483521 216.380783,956.545837 216.063354,954.509216 
	C213.637146,938.941833 211.332397,923.355652 208.994934,907.774475 
	C208.221436,902.618408 207.445496,897.462646 206.701141,892.302307 
	C205.123474,881.365112 203.499832,870.433838 202.034302,859.481506 
	C201.490753,855.419373 201.176041,851.309814 201.054916,847.213074 
	C200.949234,843.639099 199.862869,839.573059 203.748703,837.156006 
	C205.194626,836.256592 207.503250,836.572327 208.730743,835.526611 
	C212.053619,832.695801 214.426849,833.762451 216.233017,836.495056 
	C219.748688,835.593323 222.822540,834.547546 225.982666,834.052856 
	C231.126511,833.247620 236.455444,833.323181 241.472900,832.082947 
	C248.910172,830.244568 256.445984,829.711975 263.994171,828.987549 
	C266.857819,828.712708 269.707672,828.294006 272.795898,827.912170 
	C274.897491,847.694763 276.604248,867.048035 279.097137,886.299438 
	C281.577148,905.451416 284.846832,924.501160 287.816132,943.895447 
	C305.005676,939.191040 321.700836,934.621948 337.647095,930.257751 
	C330.537354,890.145081 327.313721,849.410645 326.034698,807.602966 
	C330.892365,807.875244 334.341187,808.068604 337.241760,808.231140 
	C335.572296,784.110901 333.885498,759.740417 332.242310,736.000000 
	C327.761200,736.000000 322.965912,735.940552 318.173767,736.037598 
	C316.806305,736.065308 315.410553,736.428406 314.093048,736.844360 
	C310.970673,737.830322 307.948914,739.217224 304.771088,739.921875 
	C301.610962,740.622620 296.993896,739.482544 295.344391,741.283081 
	C291.893555,745.049866 287.735504,744.751160 283.691803,745.669556 
	C282.110504,746.028625 280.504761,746.290283 278.901276,746.538879 
	C274.617523,747.203125 271.154327,750.693420 267.635468,751.534119 
	C258.145386,753.801453 248.649567,755.349976 239.741745,759.868896 
	C235.124985,762.210999 229.460098,762.391846 224.469360,764.126404 
	C221.324783,765.219421 218.721893,767.878723 215.574905,768.955200 
	C209.661331,770.978210 203.458908,772.148621 197.518082,774.103577 
	C194.495071,775.098328 191.816330,777.103516 188.912079,778.507324 
	C186.925522,779.467590 184.871338,780.365295 182.755005,780.964966 
	C176.564697,782.718689 170.271439,784.132202 164.151077,786.092834 
	C162.697189,786.558533 161.991501,789.432678 160.549866,789.852051 
	C151.609177,792.452820 142.542419,794.616882 133.555573,797.065613 
	C132.062088,797.472534 130.684830,798.461914 129.378052,799.362427 
	C127.304054,800.791687 125.547501,802.989197 123.280403,803.771729 
	C117.051231,805.921997 110.503983,807.173218 104.328766,809.448303 
	C101.057114,810.653625 98.495316,813.706665 95.258545,815.104919 
	C90.763817,817.046692 85.936028,818.217468 80.703995,819.893433 
	C82.435776,829.807739 84.203873,839.929932 85.992905,850.171936 
	C93.156021,847.969727 99.418358,845.902649 105.776382,844.190979 
	C107.336403,843.770935 109.211014,844.496033 110.937271,844.723145 
	C112.651016,844.948669 114.482086,845.729492 116.048927,845.361267 
	C121.357399,844.113770 126.522278,842.250793 131.835251,841.028076 
	C137.492004,839.726196 138.606522,840.669373 138.982895,846.340881 
	C139.702332,857.182312 140.319778,868.030518 141.019974,878.873230 
	C141.092102,879.990234 141.448090,881.087585 141.654617,882.197388 
	C143.105331,889.993347 144.606171,897.780457 145.986938,905.588867 
	C148.472382,919.644348 150.560944,933.779297 153.436737,947.753235 
	C155.509598,957.825745 158.590286,967.690796 161.259430,977.792114 
	C169.474319,973.555176 179.588654,974.178162 189.003143,969.824463 
	C197.729507,965.788818 208.561462,965.348633 217.991104,960.467041 
M258.678162,468.000641 
	C255.215027,470.122772 252.027802,472.963348 247.474915,472.246979 
	C247.241867,472.210327 246.967438,472.659119 246.670502,472.772095 
	C242.783081,474.250824 238.888138,475.709778 234.995056,477.173706 
	C232.994537,478.320831 231.054001,479.279266 229.021576,479.965576 
	C227.094742,480.616302 224.959518,480.730377 223.124496,481.548309 
	C221.511520,482.267303 220.328049,484.191254 218.706741,484.600861 
	C215.116852,485.507782 211.889450,486.020355 208.328598,488.220856 
	C204.606094,490.521240 198.965591,489.400970 194.802658,493.649902 
	C192.752869,495.742065 188.306274,494.257446 184.571075,497.379211 
	C181.014816,500.351379 173.907745,499.755554 169.038925,502.955994 
	C168.572632,503.262512 167.715698,502.904694 167.069901,503.020874 
	C164.841751,503.421783 161.110291,503.307770 160.669373,504.444305 
	C158.763458,509.357147 154.873123,507.497772 151.627563,508.049561 
	C150.173492,508.296753 147.543457,509.330505 147.592148,509.568329 
	C148.441238,513.717468 145.132736,512.725586 143.320023,512.915588 
	C140.366348,513.225220 137.356522,512.999207 134.032669,512.999207 
	C133.695755,517.962524 130.428452,518.051758 126.633461,518.125916 
	C123.895821,518.179321 121.120598,519.227356 118.476227,520.156433 
	C116.564323,520.828186 114.893372,522.156250 113.019310,522.971863 
	C110.001900,524.285034 106.692932,525.071472 103.932251,526.770996 
	C102.552788,527.620239 102.113976,529.997498 101.249687,531.683594 
	C102.752968,532.122437 104.288086,532.476868 105.749283,533.027405 
	C106.879784,533.453369 107.917709,534.125061 108.996796,534.687500 
	C108.909073,535.136047 108.821350,535.584534 108.733635,536.033081 
	C115.864349,535.044373 121.988785,537.868164 128.221863,540.278748 
	C134.629349,540.685425 139.822205,543.788513 144.863007,547.269165 
	C147.270386,547.980347 150.046890,547.655273 152.506470,548.390381 
	C158.142883,550.075195 163.624619,552.277527 169.956802,554.552673 
	C169.922592,554.387573 170.159210,555.529419 170.231995,555.880615 
	C173.451263,556.141907 176.406860,555.767944 178.823349,556.737488 
	C181.668320,557.879089 183.814758,560.973083 186.677155,561.813354 
	C191.794189,563.315430 197.220703,563.763184 202.226257,564.602783 
	C202.780518,565.649353 203.139847,567.508301 204.042953,567.827148 
	C207.779648,569.146423 211.680893,569.999695 215.521713,571.024048 
	C215.832077,571.106873 216.355469,571.107605 216.422195,571.282715 
	C218.277039,576.151672 223.392242,573.682922 226.695221,575.766113 
	C230.175018,577.960754 234.870132,578.154541 238.929977,579.530334 
	C241.457794,580.386841 243.849228,581.713562 246.183640,583.037781 
	C247.040955,583.524109 247.558136,584.610046 248.234818,585.427734 
	C252.483963,586.656738 257.715729,587.022400 261.498810,589.553406 
	C266.270203,592.745667 270.698822,595.585815 276.909332,595.025391 
	C276.742615,596.022949 276.617493,596.771606 276.512665,597.398743 
	C280.729065,599.245056 285.049957,601.137146 289.370819,603.029175 
	C290.545471,604.441467 291.906097,605.333618 293.379059,605.962830 
	C294.488007,606.436584 295.884918,606.323120 296.901886,606.908386 
	C299.630005,608.478516 302.204193,610.313538 304.875977,611.985046 
	C306.648041,613.093506 308.483032,614.101440 310.874908,615.495483 
	C320.710724,618.431152 328.206116,626.859070 338.130249,631.640869 
	C338.428558,627.603699 338.383698,623.643555 339.063019,619.811646 
	C341.919128,603.700684 344.769562,587.582642 348.049866,571.554749 
	C351.094666,556.677551 354.270386,541.802185 358.162018,527.131226 
	C361.291290,515.334351 366.027374,503.961090 369.090698,492.150940 
	C370.084473,488.319519 376.843933,482.891846 368.168854,479.370178 
	C368.067505,474.329468 363.886139,475.997681 361.212372,474.871155 
	C357.547760,473.327179 352.034058,475.100586 350.487213,469.317413 
	C350.346161,468.790131 349.174164,468.352448 348.416809,468.207062 
	C344.280457,467.412903 340.041534,467.017395 336.006195,465.884949 
	C333.665222,465.227966 331.640442,463.444122 329.473389,462.167358 
	C329.686035,461.829803 329.898682,461.492249 330.111328,461.154694 
	C323.981323,460.273712 317.851318,459.392731 311.721313,458.511749 
	C310.268860,456.780975 308.334991,454.845062 306.650513,455.042053 
	C300.541718,455.756378 294.515350,457.179718 288.465790,458.375793 
	C288.278381,458.412842 288.249542,459.005585 288.025574,459.146027 
	C286.981201,459.801056 285.962891,460.672791 284.810730,460.950745 
	C279.570160,462.214813 274.285889,463.297241 269.023132,464.471069 
	C268.565735,464.573120 268.163239,464.899445 267.713928,465.063202 
	C265.001587,466.051575 262.283081,467.022980 258.678162,468.000641 
M216.113220,704.466309 
	C217.815125,703.976440 219.514206,703.476501 221.219406,702.998413 
	C230.391922,700.426514 240.470520,700.976746 248.667633,695.015564 
	C249.298553,694.556702 250.113693,694.191223 250.879944,694.103516 
	C257.375092,693.360107 263.895752,692.815308 270.370300,691.929810 
	C272.513855,691.636597 274.590912,690.628601 276.614136,689.752808 
	C278.402618,688.978638 280.005341,687.306335 281.807953,687.109314 
	C294.414825,685.731506 307.052307,684.633972 319.679993,683.446716 
	C319.737366,682.953369 319.794769,682.460083 319.852173,681.966736 
	C315.462036,680.763245 311.071930,679.559753 306.681793,678.356262 
	C305.146667,676.675903 303.333466,675.801025 301.481720,675.017273 
	C300.761383,674.712463 299.483826,674.842896 299.259705,674.384277 
	C297.224823,670.220337 292.289459,671.924316 289.218170,669.240784 
	C286.975128,667.281006 282.719482,667.781677 279.504639,666.741699 
	C274.154938,665.010986 268.917999,662.930725 263.640778,660.978210 
	C263.085571,660.772827 262.582947,660.428345 262.048248,660.163879 
	C258.564941,658.441040 255.197800,656.395691 251.566299,655.081116 
	C246.467636,653.235596 240.958374,653.799927 235.856308,650.378662 
	C231.134598,647.212402 224.697632,646.444336 218.907288,645.082520 
	C214.386475,644.019287 209.697861,643.672302 205.086853,642.986572 
	C204.451614,642.892029 203.691925,642.858032 203.230469,642.492310 
	C198.989563,639.131775 194.969406,635.176819 188.938126,638.147400 
	C188.161163,636.958557 187.660065,635.275269 186.851227,635.111450 
	C183.174927,634.366943 179.271576,635.862549 175.743607,632.812012 
	C173.885056,631.204956 170.669205,631.167603 168.066193,630.421448 
	C165.782700,629.852234 162.186584,630.921509 160.886047,629.647461 
	C157.291885,626.126526 153.983337,628.551941 150.478043,628.874512 
	C150.124588,627.571289 149.769836,626.263367 149.570267,625.527527 
	C146.304703,623.762634 141.923279,627.461792 140.539780,622.527893 
	C137.595779,622.546875 134.204849,625.128357 132.482056,620.351868 
	C132.373856,620.051880 131.254196,620.168213 130.632690,619.992981 
	C127.698387,619.165955 123.627090,622.220154 121.852425,617.432373 
	C117.695877,619.058105 114.600761,616.856995 110.908051,615.264832 
	C106.733452,613.464966 101.693336,613.685059 97.037109,612.977478 
	C96.262344,612.859619 95.516693,612.513977 94.773521,612.231689 
	C92.847847,611.500305 90.985756,610.430542 88.995972,610.085083 
	C86.835381,609.709961 84.559296,610.000000 82.417557,610.000000 
	C75.094292,655.054077 71.456711,700.752686 73.542221,747.052185 
	C80.983932,745.806580 87.400742,744.918640 93.730392,743.609253 
	C98.118881,742.701538 102.436935,741.359009 106.684410,739.911316 
	C108.333138,739.349365 109.569298,737.504089 111.219269,737.030640 
	C119.878944,734.546082 128.572556,732.152039 137.335800,730.069031 
	C141.132141,729.166565 143.999664,726.766235 147.294510,725.228210 
	C158.802689,719.856079 172.556320,721.712524 183.659821,714.030579 
	C186.973206,711.738220 192.053787,712.094482 196.251099,710.964050 
	C202.850357,709.186707 209.387238,707.177673 216.113220,704.466309 
M250.379532,1014.995483 
	C243.795151,1014.307129 238.459122,1017.965820 232.670013,1020.061401 
	C229.061569,1021.367554 225.967682,1025.668091 221.442993,1022.057373 
	C221.223114,1021.881958 220.515686,1022.238464 220.073013,1022.433044 
	C213.206757,1025.452026 207.115829,1030.898193 198.713409,1029.147827 
	C198.087326,1029.017334 197.276825,1029.806152 196.543762,1030.149780 
	C191.464752,1032.531616 186.400787,1034.947144 181.282730,1037.241943 
	C180.580673,1037.556763 179.605255,1037.236450 178.757568,1037.257446 
	C177.210892,1037.295776 175.454178,1036.911621 174.156342,1037.509644 
	C169.241592,1039.774292 164.475754,1042.361938 159.262970,1045.028809 
	C167.462021,1058.089355 175.970825,1071.643311 184.488922,1085.212036 
	C189.171814,1082.212769 193.339462,1079.761963 197.016754,1075.908081 
	C201.216568,1071.506470 207.486710,1068.973999 213.063858,1066.019531 
	C220.286743,1062.193237 227.713867,1058.752563 235.053040,1055.145752 
	C236.639328,1055.927002 238.229752,1056.298462 239.543274,1055.853271 
	C242.729904,1054.772949 245.691772,1052.574951 248.916916,1052.155762 
	C256.162079,1051.213867 263.507233,1050.850220 270.821136,1050.694214 
	C275.880188,1050.586060 281.266266,1050.244141 285.951721,1051.741699 
	C293.452148,1054.138916 300.492645,1057.975220 307.257660,1060.993530 
	C311.765015,1054.656250 315.959045,1047.242920 321.631287,1041.222290 
	C327.011475,1035.511719 333.834808,1031.116089 340.234253,1026.430298 
	C343.187592,1024.267578 346.534149,1021.545898 349.892609,1021.252075 
	C357.822968,1020.558472 362.883026,1013.887939 370.563873,1012.659729 
	C374.725708,1011.994202 378.440674,1008.749451 382.453552,1006.874329 
	C386.129486,1005.156738 389.467957,999.452454 388.340881,996.799011 
	C385.134216,989.249390 382.227112,981.569214 378.876556,974.086243 
	C377.898163,971.901123 376.591980,968.019348 373.025330,970.681824 
	C369.912384,973.005676 367.363464,975.646423 362.951843,975.208008 
	C361.746643,975.088257 360.385986,976.947144 359.031738,977.794006 
	C357.744720,978.598755 356.445007,979.494751 355.022583,979.947632 
	C352.309448,980.811401 349.260590,980.918884 346.799011,982.200623 
	C343.575012,983.879333 340.915955,986.700012 336.735229,985.099121 
	C336.316437,984.938782 335.471252,986.216431 334.706451,986.578674 
	C331.513245,988.090759 327.942017,991.135315 325.135315,990.560669 
	C321.372009,989.790161 319.352661,991.202515 316.678406,992.723328 
	C313.779968,994.371643 310.062561,997.372742 307.704651,996.624573 
	C301.964172,994.803223 299.006073,998.911804 294.895813,1000.556458 
	C292.663940,1001.449463 289.354523,1003.513916 288.278473,1002.710266 
	C284.984222,1000.250122 283.081451,1003.131409 280.835938,1003.825562 
	C276.638580,1005.123047 272.615448,1008.637817 268.602966,1008.515015 
	C261.557190,1008.299133 257.027802,1013.031494 250.379532,1014.995483 
M425.902893,1136.607422 
	C431.474854,1134.115723 435.713684,1129.007935 442.975586,1129.655396 
	C445.934204,1129.919312 449.166046,1126.535522 452.367004,1125.006714 
	C453.387146,1124.519409 455.347656,1124.102173 455.790466,1124.607056 
	C459.175018,1128.465332 459.611877,1121.947266 462.052582,1122.962769 
	C461.690033,1121.792114 461.610962,1120.410156 460.920471,1119.483887 
	C455.000946,1111.544312 448.599762,1103.938477 443.054871,1095.750366 
	C433.130066,1081.094482 423.701019,1066.102661 414.049286,1051.227539 
	C413.295197,1051.720581 412.283081,1052.949707 411.363159,1052.884155 
	C407.684143,1052.622192 405.649109,1054.685181 403.225067,1057.038208 
	C400.192169,1059.982300 396.540131,1062.430298 392.814636,1064.470337 
	C390.259705,1065.869385 387.063171,1066.045288 384.274109,1067.089844 
	C382.904449,1067.602905 381.813690,1069.627441 380.588440,1069.634888 
	C372.662750,1069.683960 367.921448,1075.879517 361.701019,1079.138550 
	C357.807495,1081.178345 355.707336,1088.392944 356.924164,1092.864868 
	C357.092926,1093.485107 357.238586,1094.555664 356.921967,1094.796753 
	C352.455353,1098.198120 357.083282,1100.748413 358.007446,1103.266968 
	C359.382629,1107.014648 361.888824,1110.357178 363.987701,1113.827393 
	C370.004517,1123.775391 376.037201,1133.713989 382.113556,1143.625732 
	C383.549866,1145.968506 383.797699,1148.813843 388.458038,1148.419922 
	C391.906769,1148.128418 394.281158,1147.070679 397.029419,1145.571289 
	C399.798798,1144.060669 402.865570,1143.051636 405.873444,1142.033813 
	C408.920807,1141.002686 412.627716,1140.980103 415.013611,1139.161621 
	C418.328888,1136.634888 421.365204,1135.719360 425.902893,1136.607422 
M327.168274,1170.963379 
	C327.515167,1170.325806 328.325684,1169.370117 328.139282,1169.098511 
	C325.488861,1165.235840 322.551025,1161.565674 319.986603,1157.649902 
	C316.201233,1151.869873 312.567993,1145.984741 309.039581,1140.043579 
	C305.981415,1134.894165 303.159271,1129.604370 300.306305,1124.508057 
	C295.334412,1125.998047 294.352783,1121.541748 291.851654,1118.816895 
	C288.875885,1115.574951 285.052734,1113.110718 281.583313,1110.326050 
	C281.531555,1110.284424 281.296112,1110.440796 281.165955,1110.532471 
	C278.077850,1112.708374 275.401337,1109.496338 272.409058,1109.874512 
	C268.866699,1110.322144 264.983765,1109.725098 261.800262,1110.980225 
	C256.876923,1112.921265 252.421814,1116.049561 247.767517,1118.673340 
	C241.633560,1122.130981 235.130142,1125.210327 233.836258,1133.320801 
	C233.701004,1134.168701 232.284500,1135.505737 232.385483,1135.597290 
	C235.952103,1138.829346 233.370758,1140.913940 231.106049,1142.565674 
	C232.524506,1144.746460 233.712250,1146.555420 234.882889,1148.375366 
	C244.764084,1163.736694 259.194305,1174.984375 271.171143,1188.451294 
	C271.784363,1189.140869 272.908386,1189.938110 273.678955,1189.833496 
	C278.257812,1189.212158 282.997070,1189.520386 287.128448,1186.512329 
	C289.791138,1184.573608 292.982147,1183.253784 296.092529,1182.065308 
	C299.510864,1180.759155 303.202698,1180.159546 306.600555,1178.811646 
	C309.834229,1177.528564 313.652405,1173.670654 315.768494,1174.524902 
	C319.345276,1175.968872 320.752411,1173.415649 323.107056,1172.910767 
	C324.295105,1172.656128 325.324615,1171.661621 327.168274,1170.963379 
M140.566833,432.933777 
	C138.792389,436.159790 137.017944,439.385834 135.243500,442.611877 
	C135.585876,443.107880 135.928253,443.603882 136.270630,444.099884 
	C142.165512,442.246033 147.949219,439.644775 153.986298,438.746704 
	C160.130676,437.832672 165.033646,434.024872 171.438614,433.241913 
	C176.432693,432.631470 181.240265,428.270142 187.125061,428.315857 
	C187.834854,428.321411 188.515335,427.501740 189.269272,427.231506 
	C192.372208,426.119232 195.450806,424.887634 198.632935,424.066437 
	C200.659012,423.543610 204.224716,424.369812 204.734589,423.376709 
	C207.123550,418.723480 211.084122,420.264313 214.633087,419.996094 
	C215.615189,419.921906 217.280472,420.100433 217.471924,419.659332 
	C220.755096,412.095764 229.334564,417.028778 234.394867,412.348602 
	C237.077713,409.867218 243.031525,410.922516 247.508713,410.381226 
	C225.261169,394.041870 202.109497,379.833099 180.210556,362.401337 
	C173.517853,373.471619 166.894562,384.156403 160.560455,395.009918 
	C156.985107,401.136322 153.874344,407.534485 150.575226,413.821228 
	C147.353668,419.960175 144.158722,426.113098 140.566833,432.933777 
z"/>
<path fill="#000000" opacity="1.000000" stroke="none" 
	d="
M675.531372,0.999997 
	C675.219788,1.665541 674.475708,2.860725 673.653931,2.916832 
	C662.148743,3.702320 650.603455,4.018201 639.128967,5.097400 
	C629.573608,5.996102 620.078735,7.625170 610.592529,9.150878 
	C599.226990,10.978864 587.856506,12.826197 576.568542,15.069776 
	C567.731079,16.826281 558.987305,19.086596 550.254761,21.328823 
	C540.899170,23.731018 531.585999,26.305380 522.289978,28.930786 
	C512.547729,31.682224 502.640137,34.023674 493.172180,37.535004 
	C473.008270,45.013088 452.919861,52.748035 433.109650,61.110031 
	C417.039520,67.893303 401.138000,75.204857 385.683929,83.281319 
	C371.296112,90.800537 357.365417,99.273628 343.655701,107.990791 
	C327.243683,118.426193 310.916351,129.069595 295.228363,140.546906 
	C280.853790,151.063339 267.043823,162.424255 253.598679,174.118576 
	C239.192123,186.649109 225.061798,199.567245 211.628906,213.126587 
	C199.314392,225.557053 188.025894,239.010742 176.414978,252.128357 
	C171.351379,257.849030 166.713531,263.946228 161.659851,269.676239 
	C160.220474,271.308289 157.458572,271.864319 156.233017,273.578583 
	C151.427902,280.299744 147.054367,287.327362 142.408966,294.165344 
	C135.298264,304.632263 127.823967,314.862549 120.997368,325.509583 
	C111.581245,340.195374 102.081100,354.874390 93.628914,370.117432 
	C85.721199,384.378540 78.974731,399.296631 72.010406,414.063873 
	C65.583374,427.691864 59.131008,441.335052 53.464394,455.286163 
	C48.717419,466.973083 45.067646,479.106995 40.970882,491.056305 
	C37.785011,500.348694 34.473980,509.604462 31.572922,518.986084 
	C29.715666,524.992065 28.483438,531.192627 27.005779,537.314392 
	C24.885332,546.099121 22.627768,554.855469 20.739477,563.690308 
	C18.643923,573.494873 16.822187,583.360413 15.022527,593.225159 
	C13.479927,601.680847 12.045995,610.158936 10.734109,618.653442 
	C9.689557,625.416870 8.657850,632.198120 8.048293,639.009705 
	C6.570708,655.521179 5.337403,672.054504 4.025585,688.580627 
	C3.933536,689.740173 4.000609,690.912781 4.000545,692.079285 
	C3.999688,707.578491 3.609029,723.090027 4.100571,738.573669 
	C4.695213,757.304993 4.761980,776.061951 7.836294,794.689270 
	C9.962094,807.569519 10.459682,820.710388 12.083707,833.684875 
	C12.967562,840.746155 14.626654,847.714722 16.036932,854.704773 
	C18.658676,867.699524 21.230921,880.706360 24.069542,893.654297 
	C25.553793,900.424500 27.390717,907.130859 29.371946,913.775452 
	C32.080967,922.860962 35.029774,931.876404 37.967339,940.892029 
	C40.856594,949.759277 43.725784,958.636963 46.850822,967.422241 
	C50.079109,976.497620 53.438778,985.534424 57.048702,994.463623 
	C60.434170,1002.837646 64.221573,1011.049194 67.832962,1019.331848 
	C70.571465,1025.612549 72.993416,1032.056641 76.126297,1038.134033 
	C80.639641,1046.889526 85.677879,1055.374146 90.477577,1063.982422 
	C95.653748,1073.265747 100.609184,1082.679443 106.037766,1091.812378 
	C111.364265,1100.773438 117.101868,1109.493530 122.776405,1118.243286 
	C127.380081,1125.342163 131.904053,1132.514648 136.914078,1139.322876 
	C145.763443,1151.348877 154.585648,1163.428833 164.101028,1174.921631 
	C175.329956,1188.484009 186.997131,1201.713135 199.004242,1214.592773 
	C210.318024,1226.728638 221.979752,1238.588379 234.119614,1249.891724 
	C245.421585,1260.415161 257.318756,1270.340698 269.384308,1279.991455 
	C283.552002,1291.323730 297.909790,1302.461914 312.700226,1312.958374 
	C324.777924,1321.529663 337.399292,1329.396362 350.164551,1336.922607 
	C366.959717,1346.824829 383.893616,1356.550659 401.223145,1365.467529 
	C413.439240,1371.753174 426.400452,1376.595337 439.052399,1382.027466 
	C447.411926,1385.616577 455.683289,1389.466797 464.225525,1392.561401 
	C477.483856,1397.364502 490.922852,1401.673462 504.317200,1406.095093 
	C513.319275,1409.066650 522.297302,1412.159790 531.432800,1414.663330 
	C539.369934,1416.838501 547.531067,1418.184570 555.558960,1420.044922 
	C561.369629,1421.391479 567.067261,1423.277832 572.916077,1424.396606 
	C583.747375,1426.468506 594.628906,1428.310303 605.532776,1429.962524 
	C619.697266,1432.108765 633.895691,1434.038086 648.097412,1435.926270 
	C652.487488,1436.510010 656.930725,1436.848999 661.358582,1436.968018 
	C688.539917,1437.698364 715.734497,1439.104858 742.903259,1438.731934 
	C761.376892,1438.478394 779.823975,1435.772461 798.267334,1434.001221 
	C810.626099,1432.814331 822.977051,1431.496948 835.293213,1429.935913 
	C841.554810,1429.142334 847.752258,1427.779785 853.942627,1426.500122 
	C864.070618,1424.406616 874.191406,1422.267334 884.272705,1419.961426 
	C891.036560,1418.414307 897.762756,1416.673340 904.442383,1414.793823 
	C917.151184,1411.217529 929.966614,1407.927734 942.456238,1403.689331 
	C956.322205,1398.983887 969.997559,1393.650391 983.526855,1388.038086 
	C996.959900,1382.465576 1010.224487,1376.450439 1023.351990,1370.187134 
	C1039.259888,1362.596924 1055.311890,1355.187866 1070.628296,1346.511963 
	C1086.637451,1337.443726 1102.039795,1327.252441 1117.348877,1317.015869 
	C1131.304443,1307.684326 1145.010620,1297.938721 1158.384277,1287.792480 
	C1167.073975,1281.199463 1174.677490,1273.185913 1183.281006,1266.465942 
	C1203.462524,1250.702148 1221.047607,1232.222412 1238.792725,1213.939331 
	C1248.382812,1204.058716 1257.128418,1193.339233 1265.987915,1182.774170 
	C1275.651245,1171.250732 1285.418823,1159.774902 1294.375610,1147.710205 
	C1302.823975,1136.330078 1310.437988,1124.314697 1318.121704,1112.387207 
	C1325.378906,1101.121826 1332.512329,1089.759033 1339.210693,1078.156616 
	C1345.152710,1067.864014 1350.541016,1057.244019 1355.952637,1046.655518 
	C1360.608887,1037.544556 1365.232422,1028.397217 1369.360107,1019.040894 
	C1373.909180,1008.729370 1377.896240,998.169067 1382.091064,987.702209 
	C1385.732178,978.616272 1389.587402,969.603760 1392.856079,960.384460 
	C1395.916382,951.753174 1398.297974,942.882690 1401.038818,934.136475 
	C1404.211548,924.011658 1407.737793,913.987244 1410.569458,903.769348 
	C1412.813477,895.672119 1414.310059,887.362854 1416.014526,879.122131 
	C1418.404053,867.569824 1420.852417,856.025330 1422.953369,844.419189 
	C1425.122559,832.437012 1427.069458,820.408508 1428.797119,808.354919 
	C1429.842041,801.065430 1430.636963,793.704041 1430.937134,786.350159 
	C1432.091187,758.077332 1433.683594,729.795959 1433.747192,701.514771 
	C1433.786255,684.156921 1431.420776,666.787292 1429.988159,649.435059 
	C1429.139771,639.159912 1428.401489,628.849792 1426.896362,618.661377 
	C1425.123779,606.662415 1422.603882,594.772705 1420.353638,582.845886 
	C1418.611694,573.613342 1417.018188,564.343567 1414.928467,555.188599 
	C1413.067627,547.036377 1410.699097,538.995361 1408.405273,530.947876 
	C1405.357910,520.257019 1402.371216,509.541412 1398.973145,498.960205 
	C1396.035522,489.812225 1392.557373,480.837830 1389.321899,471.785370 
	C1386.211060,463.082306 1383.242188,454.325134 1379.950928,445.690887 
	C1377.502563,439.267822 1374.887451,432.883728 1371.911987,426.691071 
	C1363.979858,410.182404 1356.270630,393.540436 1347.601562,377.420074 
	C1340.085449,363.444061 1331.583008,349.979858 1323.137085,336.527740 
	C1314.156372,322.223969 1305.282104,307.797577 1295.344971,294.165527 
	C1284.955566,279.912964 1273.567261,266.365356 1262.222656,252.839111 
	C1252.382690,241.106781 1242.379028,229.461868 1231.737183,218.466019 
	C1221.338989,207.722000 1210.110107,197.774094 1199.116699,187.616547 
	C1190.854858,179.982941 1182.661377,172.235397 1173.947266,165.140747 
	C1161.784912,155.238495 1149.367188,145.620438 1136.685669,136.393387 
	C1123.699951,126.944992 1110.487915,117.764343 1096.953003,109.127853 
	C1086.625366,102.538002 1075.690552,96.886444 1064.932373,90.988022 
	C1051.591187,83.673332 1038.252441,76.341217 1024.715576,69.400978 
	C1017.891357,65.902237 1010.662537,63.178551 1003.562561,60.234997 
	C992.801758,55.773655 982.107544,51.115326 971.176025,47.111298 
	C958.357178,42.415958 945.354980,38.205650 932.355591,34.023270 
	C922.399597,30.820063 912.424255,27.581621 902.278870,25.084671 
	C887.245239,21.384644 872.060913,18.292545 856.924866,15.015129 
	C851.710938,13.886163 846.449829,12.975469 841.209717,11.968081 
	C834.369812,10.653146 827.572021,9.018754 820.678894,8.104929 
	C810.787903,6.793674 800.838501,5.873693 790.893005,5.037116 
	C780.894775,4.196115 770.868774,3.689345 760.861755,2.944841 
	C759.988831,2.879898 759.166443,2.135355 758.660278,1.353244 
	C986.315796,1.000000 1213.631592,1.000000 1440.973633,1.000000 
	C1440.973633,480.945465 1440.973633,960.890930 1440.973633,1440.918213 
	C961.091492,1440.918213 481.183014,1440.918213 1.137260,1440.918213 
	C1.137260,961.000000 1.137260,481.000031 1.137260,1.000000 
	C225.763870,1.000000 450.413269,1.000000 675.531372,0.999997 
z"/>
<path fill="#000000" opacity="1.000000" stroke="none" 
	d="
M1355.215698,825.512024 
	C1353.852173,833.280151 1352.795776,840.661011 1351.436035,847.985535 
	C1349.754395,857.044556 1348.030029,866.105957 1345.928711,875.073669 
	C1344.314819,881.961243 1342.180298,888.733276 1340.115356,895.507263 
	C1335.756104,909.808228 1331.791748,924.257263 1326.730835,938.308960 
	C1321.502930,952.825012 1315.536377,967.107788 1309.218140,981.189880 
	C1301.942383,997.406128 1294.344238,1013.509094 1286.098511,1029.248535 
	C1279.811890,1041.248413 1272.491211,1052.727173 1265.274048,1064.213623 
	C1257.847412,1076.033447 1250.477539,1087.942505 1242.199707,1099.160889 
	C1230.936035,1114.425659 1219.232544,1129.409180 1206.977295,1143.886475 
	C1195.354492,1157.616699 1183.141357,1170.897461 1170.511353,1183.708984 
	C1159.290527,1195.091187 1147.474365,1205.875244 1132.840454,1213.149780 
	C1120.579956,1219.244385 1108.926025,1226.558960 1096.668457,1232.660156 
	C1086.677612,1237.633179 1076.216309,1241.670288 1065.915894,1246.009277 
	C1058.516846,1249.125977 1051.158325,1252.408203 1043.565308,1254.977173 
	C1034.597290,1258.011475 1025.420410,1260.444214 1016.288940,1262.974731 
	C1008.671326,1265.085938 1001.064880,1267.358521 993.317017,1268.851074 
	C981.058655,1271.212036 968.721313,1273.238403 956.351990,1274.926880 
	C944.211365,1276.583862 932.015198,1278.049683 919.794373,1278.835449 
	C909.835999,1279.475708 899.776794,1279.471558 889.812927,1278.888550 
	C874.260315,1277.978760 858.682251,1276.862915 843.241882,1274.857300 
	C827.984436,1272.875610 812.680481,1270.503052 797.768982,1266.802856 
	C780.628235,1262.549438 763.700745,1257.200439 747.046936,1251.294556 
	C733.345459,1246.435669 720.043640,1240.362549 706.814697,1234.283691 
	C694.177429,1228.476440 681.544678,1222.520630 669.500977,1215.601562 
	C658.668396,1209.378174 648.525940,1201.917847 638.284180,1194.711548 
	C627.155579,1186.881348 616.064209,1178.970581 605.339539,1170.604126 
	C598.307312,1165.118042 591.851746,1158.870972 585.322937,1152.766846 
	C576.848694,1144.843750 568.399841,1136.880615 560.245850,1128.632324 
	C555.013794,1123.339844 550.213257,1117.602539 545.430054,1111.888306 
	C535.949524,1100.562500 526.469666,1089.230103 517.272522,1077.675171 
	C511.410309,1070.310303 505.824097,1062.699097 500.527710,1054.916748 
	C492.017395,1042.411621 483.378784,1029.951782 475.684174,1016.946472 
	C469.435516,1006.384949 464.327667,995.129700 459.019257,984.036072 
	C453.940369,973.422119 448.871613,962.773193 444.505676,951.856812 
	C440.208557,941.112610 436.718628,930.040344 433.028931,919.060181 
	C430.511505,911.568481 428.124329,904.026672 425.930267,896.434631 
	C424.099182,890.098755 422.510895,883.685425 421.034363,877.256042 
	C418.826843,867.643799 416.588867,858.029175 414.772736,848.338867 
	C412.621643,836.861450 410.803528,825.318176 409.028229,813.774658 
	C407.246613,802.190430 405.691406,790.571350 404.053162,778.965271 
	C403.960663,778.309998 404.016998,777.634033 404.000061,776.967773 
	C403.333649,750.788269 402.070740,724.605286 402.225006,698.430664 
	C402.316559,682.894836 404.572693,667.365967 405.987762,651.846008 
	C406.863770,642.238342 407.785217,632.626160 409.064056,623.066589 
	C410.095947,615.352722 411.648163,607.706238 413.051910,600.044983 
	C414.655090,591.294922 416.172943,582.523254 418.060303,573.833191 
	C419.563812,566.910339 421.349243,560.030518 423.392517,553.246948 
	C427.798798,538.618042 431.926544,523.872498 437.141357,509.528503 
	C443.135803,493.040161 449.572845,476.652222 456.938751,460.739685 
	C464.610565,444.166290 472.851898,427.749542 482.265991,412.120697 
	C491.138733,397.390472 501.702087,383.658844 511.826111,369.708832 
	C519.004150,359.818237 526.481079,350.125732 534.213257,340.662292 
	C540.262695,333.258240 546.697388,326.137665 553.338867,319.255890 
	C563.485413,308.742340 573.599854,298.150238 584.392151,288.320648 
	C595.282776,278.401428 606.800476,269.139069 618.384155,260.021759 
	C628.383972,252.151093 638.495056,244.311584 649.213013,237.488892 
	C666.301941,226.610611 683.406677,215.695938 702.253906,207.835205 
	C716.142700,202.042526 729.425049,194.720001 743.490356,189.446747 
	C759.275635,183.528610 775.455139,178.424179 791.801025,174.307190 
	C807.632446,170.319778 823.832825,167.647278 839.987793,165.151657 
	C849.536133,163.676605 859.308228,163.627533 868.984070,163.005478 
	C879.998047,162.297363 891.045959,160.818634 902.026794,161.196625 
	C918.912231,161.777878 935.736572,163.949661 952.617737,164.894913 
	C966.839355,165.691254 980.623962,168.598679 994.356323,171.992783 
	C1005.598206,174.771362 1017.007629,177.075623 1027.981812,180.687195 
	C1046.172119,186.673584 1064.249512,193.097992 1082.028320,200.204254 
	C1092.700928,204.470184 1102.818115,210.188873 1112.996338,215.609039 
	C1121.744629,220.267700 1130.447998,225.085098 1138.755981,230.472778 
	C1145.903442,235.107849 1152.922485,240.148941 1159.180420,245.900238 
	C1169.232910,255.138641 1178.847168,264.888855 1188.204468,274.838501 
	C1196.775391,283.951935 1205.062378,293.372162 1212.925659,303.100769 
	C1222.048340,314.387543 1230.751831,326.027405 1239.304321,337.756866 
	C1247.204956,348.592529 1254.894043,359.599152 1262.251709,370.809174 
	C1268.914795,380.960754 1275.289307,391.327637 1281.266724,401.896149 
	C1287.171265,412.336060 1292.699585,423.013031 1297.882202,433.830719 
	C1304.186401,446.989532 1310.324097,460.253693 1315.847290,473.753235 
	C1320.737427,485.704987 1324.794434,498.004425 1329.020264,510.219208 
	C1333.062622,521.903381 1337.243774,533.563354 1340.633667,545.442444 
	C1343.902100,556.895691 1346.443115,568.571533 1348.921265,580.230835 
	C1351.211792,591.007507 1353.074829,601.877930 1354.976807,612.733276 
	C1356.462769,621.214355 1357.821777,629.720825 1359.048950,638.243164 
	C1360.164429,645.990662 1361.359375,653.750549 1361.924805,661.548096 
	C1362.867432,674.547791 1363.433472,687.577759 1363.973633,700.602661 
	C1364.447266,712.025208 1365.210449,723.474670 1364.865234,734.882568 
	C1364.412842,749.839722 1363.458862,764.817017 1361.869019,779.694641 
	C1360.245361,794.887024 1357.591064,809.969238 1355.215698,825.512024 
M863.241455,1173.999634 
	C876.037964,1170.710938 888.925720,1167.734497 901.599792,1164.027100 
	C910.478638,1161.429688 919.481140,1158.653809 927.685547,1154.492920 
	C940.077271,1148.208496 952.239868,1141.261353 963.714233,1133.442871 
	C973.694275,1126.642456 982.978577,1118.668945 991.860229,1110.446777 
	C1003.381653,1099.780884 1014.978333,1089.016113 1025.110718,1077.078613 
	C1036.224609,1063.984863 1046.302002,1049.897217 1055.741333,1035.527100 
	C1065.807983,1020.201782 1075.039551,1004.277832 1083.786743,988.154663 
	C1089.168213,978.235413 1093.114746,967.517273 1097.419678,957.040405 
	C1101.450195,947.231140 1105.383545,937.363586 1108.841919,927.343018 
	C1112.037231,918.084595 1114.617554,908.609924 1117.335205,899.191956 
	C1119.656494,891.147156 1122.034424,883.105469 1123.945679,874.958740 
	C1126.787720,862.845032 1129.344604,850.661072 1131.821411,838.466125 
	C1133.401978,830.683411 1134.912354,822.864380 1135.918701,814.993164 
	C1136.957275,806.868347 1136.557983,798.499695 1138.185425,790.522827 
	C1141.570801,773.929749 1141.423462,757.122498 1141.808472,740.417908 
	C1142.459961,712.135620 1142.506958,683.805420 1139.010010,655.627197 
	C1138.346191,650.277954 1137.905762,644.900391 1137.205933,639.556335 
	C1136.213501,631.977356 1135.205566,624.396118 1133.969116,616.854431 
	C1132.213501,606.146240 1130.696411,595.368469 1128.256104,584.810303 
	C1124.916382,570.361145 1120.975220,556.042786 1116.970459,541.758484 
	C1113.937622,530.941406 1110.839111,520.104736 1106.971313,509.570038 
	C1102.825684,498.278534 1097.856689,487.281616 1093.037109,476.247711 
	C1089.268311,467.619080 1085.150635,459.143341 1081.237915,450.576782 
	C1073.360229,433.328674 1063.980591,416.905487 1052.797241,401.633026 
	C1041.627197,386.378601 1030.263428,371.203552 1018.005981,356.828247 
	C1008.964539,346.224731 998.934753,336.272217 988.299500,327.264526 
	C972.329773,313.738770 955.064331,301.839813 936.425293,292.147247 
	C929.792053,288.697845 923.004272,285.489594 916.088928,282.654480 
	C909.105957,279.791656 901.977112,277.181122 894.729248,275.096130 
	C886.982178,272.867462 879.071228,271.110077 871.138916,269.652527 
	C863.913757,268.324890 856.564026,267.674683 848.144592,266.579620 
	C862.093262,277.662567 875.165649,287.442841 887.530518,298.048004 
	C899.399170,308.227448 911.060974,318.759705 921.841980,330.063629 
	C932.370789,341.103180 942.071533,353.006042 951.390198,365.104156 
	C959.478333,375.604889 966.689697,386.799866 973.973511,397.894775 
	C979.217346,405.882233 984.169556,414.082855 988.842102,422.418060 
	C994.462708,432.444458 1000.022583,442.538116 1004.921753,452.926666 
	C1010.174500,464.065002 1014.709473,475.546631 1019.406433,486.940796 
	C1023.369934,496.555511 1027.528198,506.120422 1030.855347,515.959229 
	C1034.979492,528.154968 1038.536743,540.555237 1041.949951,552.973999 
	C1044.084595,560.740295 1045.466553,568.711792 1047.251465,576.576355 
	C1049.464111,586.325989 1052.247070,595.977295 1053.871704,605.821594 
	C1056.045898,618.995789 1056.857056,632.398926 1059.133423,645.551453 
	C1062.680908,666.049255 1063.284668,686.725586 1063.926270,707.404297 
	C1064.323975,720.223328 1064.097290,733.065918 1063.953003,745.895630 
	C1063.893921,751.156555 1063.432739,756.422668 1062.946655,761.667175 
	C1061.692993,775.195740 1060.396362,788.721252 1058.967651,802.232300 
	C1058.299561,808.549500 1057.451172,814.858215 1056.387817,821.120361 
	C1055.088013,828.773743 1053.488525,836.376526 1051.997559,843.997070 
	C1050.166382,853.356812 1048.556763,862.768860 1046.394531,872.051941 
	C1044.609375,879.716492 1042.188599,887.234680 1039.996582,894.802490 
	C1037.352295,903.931396 1034.946167,913.143799 1031.896729,922.136902 
	C1028.602295,931.852112 1024.684204,941.355835 1021.038025,950.951782 
	C1017.869812,959.289856 1015.158264,967.839417 1011.420837,975.914124 
	C1006.368713,986.829163 1000.642883,997.440125 994.993103,1008.068420 
	C989.801697,1017.834290 984.787598,1027.742065 978.865845,1037.060303 
	C970.947998,1049.519409 962.569153,1061.722534 953.756287,1073.565186 
	C945.579651,1084.552856 937.137451,1095.452026 927.789124,1105.431641 
	C915.907837,1118.114868 903.285583,1130.151245 890.424377,1141.852661 
	C882.042786,1149.478516 872.702881,1156.057495 863.723694,1163.016968 
	C858.845398,1166.797974 853.823792,1170.393921 848.866821,1174.073486 
	C849.000916,1174.366455 849.135071,1174.659424 849.269165,1174.952393 
	C853.620850,1174.634888 857.972595,1174.317505 863.241455,1173.999634 
z"/>
<path fill="#000000" opacity="1.000000" stroke="none" 
	d="
M662.670166,148.725098 
	C646.523804,157.971985 630.265747,166.334595 614.973938,176.195526 
	C597.998962,187.141830 581.624939,199.085938 565.532776,211.311050 
	C555.768494,218.728928 546.885925,227.342789 537.876099,235.708923 
	C528.110901,244.776443 518.343384,253.880707 509.159546,263.523865 
	C500.373352,272.749359 492.179962,282.557617 484.006805,292.344269 
	C472.886475,305.659882 461.745483,318.977051 451.167236,332.719910 
	C444.280365,341.667053 438.168121,351.238251 432.089417,360.772522 
	C424.696533,372.368134 417.422058,384.058868 410.634216,396.013855 
	C405.897278,404.356659 402.063995,413.212555 397.348694,422.813171 
	C394.915375,420.396088 393.227997,417.973297 390.915527,416.613464 
	C388.077972,414.944794 384.724854,414.145355 381.580688,413.008667 
	C380.072906,412.463562 378.017212,412.467957 377.093262,411.433929 
	C371.876923,405.596130 364.396606,405.273438 357.738037,402.915344 
	C356.642517,402.527344 355.921631,401.081512 355.780975,399.247253 
	C351.323975,398.500214 346.836670,397.895355 342.421173,396.953705 
	C339.701202,396.373596 336.994781,396.462189 334.975311,393.081848 
	C333.872864,391.236481 329.055634,391.498688 325.880676,391.037292 
	C323.159943,390.641907 319.757782,391.995148 318.830475,387.699982 
	C318.750488,387.329529 317.329254,387.377777 316.697296,386.972382 
	C315.023834,385.898865 313.432587,384.695435 311.825195,383.520996 
	C309.583527,381.883209 307.137451,380.449310 305.171448,378.526642 
	C301.535217,374.970612 298.298340,371.003906 294.629517,367.485229 
	C293.766052,366.657104 291.846008,366.930634 290.959961,365.922211 
	C289.728851,364.934753 287.723328,364.151733 287.399384,362.924805 
	C285.925568,357.342468 278.989838,357.808044 276.898743,353.014404 
	C276.521790,352.150299 275.312317,351.624268 274.443024,351.004059 
	C267.514221,346.060394 260.083832,341.776917 254.822464,334.740112 
	C253.563110,333.055786 251.022949,332.382294 249.276352,330.987793 
	C248.336823,330.237579 247.831146,328.944000 246.660004,327.193604 
	C242.353455,326.543091 238.207489,324.250519 235.717926,318.982758 
	C235.035583,317.538940 232.239517,316.349152 230.407547,316.340912 
	C225.898163,316.320557 224.781952,312.714661 222.589981,310.141449 
	C222.003403,309.452850 221.093033,309.040100 220.203705,308.410339 
	C299.574829,212.741501 397.585815,143.628387 515.538147,104.129898 
	C636.006714,63.788784 758.196533,60.356087 882.020020,91.852730 
	C873.442993,92.256088 865.498413,92.272911 857.635437,93.082558 
	C845.646973,94.317017 833.691711,95.942162 821.765869,97.697136 
	C811.178711,99.255112 800.552917,100.776985 790.120056,103.103340 
	C775.178223,106.435104 760.158020,109.742691 745.607605,114.418404 
	C728.165405,120.023407 711.038330,126.702759 694.052856,133.601471 
	C683.431580,137.915359 673.323181,143.491791 662.670166,148.725098 
z"/>
<path fill="#000000" opacity="1.000000" stroke="none" 
	d="
M390.632202,1279.250610 
	C365.853790,1264.652100 342.421387,1248.771729 319.039368,1229.982178 
	C321.811707,1229.331665 323.476807,1229.037598 325.079895,1228.542480 
	C327.583405,1227.769287 330.033630,1226.825439 332.526398,1226.015381 
	C337.712280,1224.330444 342.952362,1222.801270 348.086761,1220.973877 
	C350.463989,1220.127808 352.646729,1218.734375 354.915985,1217.585938 
	C355.928314,1217.073608 357.085266,1215.935425 357.923035,1216.136719 
	C363.658783,1217.514648 367.853821,1213.900024 372.638702,1212.083740 
	C374.544525,1211.360229 376.362946,1208.741699 379.254425,1211.614258 
	C379.978302,1212.333252 384.347931,1209.005005 387.211670,1208.040161 
	C390.990021,1206.767090 395.008392,1206.206543 398.787842,1204.936035 
	C402.224304,1203.780640 405.403564,1201.858276 408.842346,1200.712524 
	C410.953278,1200.009033 413.387421,1200.339722 415.589722,1199.830811 
	C418.523132,1199.152832 421.448608,1198.299438 424.237457,1197.174316 
	C427.454712,1195.876099 429.488739,1191.235352 434.364288,1194.686523 
	C435.532135,1195.513062 439.183624,1193.015747 441.598053,1191.850708 
	C444.752533,1190.328613 447.659363,1189.524780 451.496338,1189.591187 
	C456.359467,1189.675659 461.280304,1186.908081 466.153900,1185.302490 
	C466.740601,1185.109253 467.517273,1184.039917 467.652679,1184.138306 
	C473.955902,1188.717041 477.815887,1181.325806 483.081879,1181.042847 
	C485.064575,1180.936279 487.124542,1181.307129 489.028961,1180.899048 
	C493.382874,1179.966064 497.670715,1178.716309 501.969025,1177.535400 
	C504.090424,1176.952515 506.175476,1176.237305 508.692535,1175.452393 
	C508.376343,1176.988403 508.223938,1177.728638 508.202972,1177.830444 
	C511.124084,1179.696655 514.121765,1181.022217 516.358948,1183.147949 
	C524.145569,1190.546387 531.360168,1198.567749 539.366089,1205.708984 
	C550.650879,1215.774658 562.200073,1225.582275 574.097961,1234.911255 
	C585.113525,1243.548462 596.498108,1251.770020 608.157043,1259.517090 
	C620.552612,1267.753418 633.037964,1276.042480 646.246277,1282.823975 
	C665.904907,1292.917358 686.099243,1302.009766 706.326965,1310.935791 
	C717.931091,1316.056641 729.923523,1320.395874 741.978210,1324.367310 
	C752.341736,1327.781616 763.012634,1330.288330 773.601501,1332.985107 
	C782.648376,1335.289062 791.705505,1337.654541 800.878662,1339.334595 
	C811.431702,1341.267334 822.103333,1342.583252 832.749084,1343.970703 
	C843.914124,1345.425781 855.097290,1346.767334 866.298096,1347.907593 
	C870.253479,1348.310181 874.284241,1347.971924 878.531189,1348.973389 
	C873.419434,1350.314087 868.339600,1351.796021 863.188049,1352.960693 
	C856.258301,1354.527466 849.303833,1356.026855 842.304688,1357.234863 
	C832.226440,1358.974365 822.105042,1360.468750 811.990173,1361.988647 
	C801.213501,1363.607910 790.423096,1365.136353 779.638062,1366.700073 
	C778.826355,1366.817749 778.011414,1366.969604 777.195068,1366.989624 
	C749.685974,1367.668457 722.173828,1368.906860 694.668274,1368.775146 
	C679.304382,1368.701660 663.931641,1366.542969 648.599548,1364.966797 
	C634.969910,1363.565674 621.309143,1362.152466 607.812866,1359.857910 
	C594.765625,1357.639771 581.904358,1354.318359 568.973816,1351.426270 
	C561.099854,1349.665039 553.159241,1348.114258 545.411621,1345.898926 
	C536.301025,1343.293823 527.363220,1340.083130 518.357910,1337.112549 
	C513.318359,1335.450195 508.241333,1333.882812 503.273102,1332.026611 
	C491.569672,1327.654053 479.777283,1323.472534 468.289276,1318.583008 
	C455.575256,1313.171997 443.031281,1307.317871 430.654694,1301.170532 
	C420.312866,1296.033936 410.313110,1290.207520 400.175201,1284.662109 
	C397.078033,1282.968140 394.024963,1281.193604 390.632202,1279.250610 
z"/>
<path fill="#000000" opacity="1.000000" stroke="none" 
	d="
M217.957977,960.884155 
	C208.561462,965.348633 197.729507,965.788818 189.003143,969.824463 
	C179.588654,974.178162 169.474319,973.555176 161.259430,977.792114 
	C158.590286,967.690796 155.509598,957.825745 153.436737,947.753235 
	C150.560944,933.779297 148.472382,919.644348 145.986938,905.588867 
	C144.606171,897.780457 143.105331,889.993347 141.654617,882.197388 
	C141.448090,881.087585 141.092102,879.990234 141.019974,878.873230 
	C140.319778,868.030518 139.702332,857.182312 138.982895,846.340881 
	C138.606522,840.669373 137.492004,839.726196 131.835251,841.028076 
	C126.522278,842.250793 121.357399,844.113770 116.048927,845.361267 
	C114.482086,845.729492 112.651016,844.948669 110.937271,844.723145 
	C109.211014,844.496033 107.336403,843.770935 105.776382,844.190979 
	C99.418358,845.902649 93.156021,847.969727 85.992905,850.171936 
	C84.203873,839.929932 82.435776,829.807739 80.703995,819.893433 
	C85.936028,818.217468 90.763817,817.046692 95.258545,815.104919 
	C98.495316,813.706665 101.057114,810.653625 104.328766,809.448303 
	C110.503983,807.173218 117.051231,805.921997 123.280403,803.771729 
	C125.547501,802.989197 127.304054,800.791687 129.378052,799.362427 
	C130.684830,798.461914 132.062088,797.472534 133.555573,797.065613 
	C142.542419,794.616882 151.609177,792.452820 160.549866,789.852051 
	C161.991501,789.432678 162.697189,786.558533 164.151077,786.092834 
	C170.271439,784.132202 176.564697,782.718689 182.755005,780.964966 
	C184.871338,780.365295 186.925522,779.467590 188.912079,778.507324 
	C191.816330,777.103516 194.495071,775.098328 197.518082,774.103577 
	C203.458908,772.148621 209.661331,770.978210 215.574905,768.955200 
	C218.721893,767.878723 221.324783,765.219421 224.469360,764.126404 
	C229.460098,762.391846 235.124985,762.210999 239.741745,759.868896 
	C248.649567,755.349976 258.145386,753.801453 267.635468,751.534119 
	C271.154327,750.693420 274.617523,747.203125 278.901276,746.538879 
	C280.504761,746.290283 282.110504,746.028625 283.691803,745.669556 
	C287.735504,744.751160 291.893555,745.049866 295.344391,741.283081 
	C296.993896,739.482544 301.610962,740.622620 304.771088,739.921875 
	C307.948914,739.217224 310.970673,737.830322 314.093048,736.844360 
	C315.410553,736.428406 316.806305,736.065308 318.173767,736.037598 
	C322.965912,735.940552 327.761200,736.000000 332.242310,736.000000 
	C333.885498,759.740417 335.572296,784.110901 337.241760,808.231140 
	C334.341187,808.068604 330.892365,807.875244 326.034698,807.602966 
	C327.313721,849.410645 330.537354,890.145081 337.647095,930.257751 
	C321.700836,934.621948 305.005676,939.191040 287.816132,943.895447 
	C284.846832,924.501160 281.577148,905.451416 279.097137,886.299438 
	C276.604248,867.048035 274.897491,847.694763 272.795898,827.912170 
	C269.707672,828.294006 266.857819,828.712708 263.994171,828.987549 
	C256.445984,829.711975 248.910172,830.244568 241.472900,832.082947 
	C236.455444,833.323181 231.126511,833.247620 225.982666,834.052856 
	C222.822540,834.547546 219.748688,835.593323 216.233017,836.495056 
	C214.426849,833.762451 212.053619,832.695801 208.730743,835.526611 
	C207.503250,836.572327 205.194626,836.256592 203.748703,837.156006 
	C199.862869,839.573059 200.949234,843.639099 201.054916,847.213074 
	C201.176041,851.309814 201.490753,855.419373 202.034302,859.481506 
	C203.499832,870.433838 205.123474,881.365112 206.701141,892.302307 
	C207.445496,897.462646 208.221436,902.618408 208.994934,907.774475 
	C211.332397,923.355652 213.637146,938.941833 216.063354,954.509216 
	C216.380783,956.545837 217.332947,958.483521 217.957977,960.884155 
z"/>
<path fill="#000000" opacity="1.000000" stroke="none" 
	d="
M259.122375,468.000336 
	C262.283081,467.022980 265.001587,466.051575 267.713928,465.063202 
	C268.163239,464.899445 268.565735,464.573120 269.023132,464.471069 
	C274.285889,463.297241 279.570160,462.214813 284.810730,460.950745 
	C285.962891,460.672791 286.981201,459.801056 288.025574,459.146027 
	C288.249542,459.005585 288.278381,458.412842 288.465790,458.375793 
	C294.515350,457.179718 300.541718,455.756378 306.650513,455.042053 
	C308.334991,454.845062 310.268860,456.780975 311.721313,458.511749 
	C317.851318,459.392731 323.981323,460.273712 330.111328,461.154694 
	C329.898682,461.492249 329.686035,461.829803 329.473389,462.167358 
	C331.640442,463.444122 333.665222,465.227966 336.006195,465.884949 
	C340.041534,467.017395 344.280457,467.412903 348.416809,468.207062 
	C349.174164,468.352448 350.346161,468.790131 350.487213,469.317413 
	C352.034058,475.100586 357.547760,473.327179 361.212372,474.871155 
	C363.886139,475.997681 368.067505,474.329468 368.168854,479.370178 
	C376.843933,482.891846 370.084473,488.319519 369.090698,492.150940 
	C366.027374,503.961090 361.291290,515.334351 358.162018,527.131226 
	C354.270386,541.802185 351.094666,556.677551 348.049866,571.554749 
	C344.769562,587.582642 341.919128,603.700684 339.063019,619.811646 
	C338.383698,623.643555 338.428558,627.603699 338.130249,631.640869 
	C328.206116,626.859070 320.710724,618.431152 310.874908,615.495483 
	C308.483032,614.101440 306.648041,613.093506 304.875977,611.985046 
	C302.204193,610.313538 299.630005,608.478516 296.901886,606.908386 
	C295.884918,606.323120 294.488007,606.436584 293.379059,605.962830 
	C291.906097,605.333618 290.545471,604.441467 289.370819,603.029175 
	C285.049957,601.137146 280.729065,599.245056 276.512665,597.398743 
	C276.617493,596.771606 276.742615,596.022949 276.909332,595.025391 
	C270.698822,595.585815 266.270203,592.745667 261.498810,589.553406 
	C257.715729,587.022400 252.483963,586.656738 248.234818,585.427734 
	C247.558136,584.610046 247.040955,583.524109 246.183640,583.037781 
	C243.849228,581.713562 241.457794,580.386841 238.929977,579.530334 
	C234.870132,578.154541 230.175018,577.960754 226.695221,575.766113 
	C223.392242,573.682922 218.277039,576.151672 216.422195,571.282715 
	C216.355469,571.107605 215.832077,571.106873 215.521713,571.024048 
	C211.680893,569.999695 207.779648,569.146423 204.042953,567.827148 
	C203.139847,567.508301 202.780518,565.649353 202.226257,564.602783 
	C197.220703,563.763184 191.794189,563.315430 186.677155,561.813354 
	C183.814758,560.973083 181.668320,557.879089 178.823349,556.737488 
	C176.406860,555.767944 173.451263,556.141907 170.231995,555.880615 
	C170.159210,555.529419 169.922592,554.387573 169.956802,554.552673 
	C163.624619,552.277527 158.142883,550.075195 152.506470,548.390381 
	C150.046890,547.655273 147.270386,547.980347 144.863007,547.269165 
	C139.822205,543.788513 134.629349,540.685425 128.221863,540.278748 
	C121.988785,537.868164 115.864349,535.044373 108.733635,536.033081 
	C108.821350,535.584534 108.909073,535.136047 108.996796,534.687500 
	C107.917709,534.125061 106.879784,533.453369 105.749283,533.027405 
	C104.288086,532.476868 102.752968,532.122437 101.249680,531.683594 
	C102.113976,529.997498 102.552788,527.620239 103.932251,526.770996 
	C106.692932,525.071472 110.001900,524.285034 113.019310,522.971863 
	C114.893372,522.156250 116.564323,520.828186 118.476227,520.156433 
	C121.120598,519.227356 123.895821,518.179321 126.633461,518.125916 
	C130.428452,518.051758 133.695755,517.962524 134.032669,512.999207 
	C137.356522,512.999207 140.366348,513.225220 143.320023,512.915588 
	C145.132736,512.725586 148.441238,513.717468 147.592148,509.568329 
	C147.543457,509.330505 150.173492,508.296753 151.627563,508.049561 
	C154.873123,507.497772 158.763458,509.357147 160.669373,504.444305 
	C161.110291,503.307770 164.841751,503.421783 167.069901,503.020874 
	C167.715698,502.904694 168.572632,503.262512 169.038925,502.955994 
	C173.907745,499.755554 181.014816,500.351379 184.571075,497.379211 
	C188.306274,494.257446 192.752869,495.742065 194.802658,493.649902 
	C198.965591,489.400970 204.606094,490.521240 208.328598,488.220856 
	C211.889450,486.020355 215.116852,485.507782 218.706741,484.600861 
	C220.328049,484.191254 221.511520,482.267303 223.124496,481.548309 
	C224.959518,480.730377 227.094742,480.616302 229.021576,479.965576 
	C231.054001,479.279266 232.994537,478.320831 234.995056,477.173706 
	C238.888138,475.709778 242.783081,474.250824 246.670502,472.772095 
	C246.967438,472.659119 247.241867,472.210327 247.474915,472.246979 
	C252.027802,472.963348 255.215027,470.122772 259.122375,468.000336 
z"/>
<path fill="#000000" opacity="1.000000" stroke="none" 
	d="
M216.031876,704.866577 
	C209.387238,707.177673 202.850357,709.186707 196.251099,710.964050 
	C192.053787,712.094482 186.973206,711.738220 183.659821,714.030579 
	C172.556320,721.712524 158.802689,719.856079 147.294510,725.228210 
	C143.999664,726.766235 141.132141,729.166565 137.335800,730.069031 
	C128.572556,732.152039 119.878944,734.546082 111.219269,737.030640 
	C109.569298,737.504089 108.333138,739.349365 106.684410,739.911316 
	C102.436935,741.359009 98.118881,742.701538 93.730392,743.609253 
	C87.400742,744.918640 80.983932,745.806580 73.542221,747.052185 
	C71.456711,700.752686 75.094292,655.054077 82.417557,610.000000 
	C84.559296,610.000000 86.835381,609.709961 88.995972,610.085083 
	C90.985756,610.430542 92.847847,611.500305 94.773521,612.231689 
	C95.516693,612.513977 96.262344,612.859619 97.037109,612.977478 
	C101.693336,613.685059 106.733452,613.464966 110.908051,615.264832 
	C114.600761,616.856995 117.695877,619.058105 121.852425,617.432373 
	C123.627090,622.220154 127.698387,619.165955 130.632690,619.992981 
	C131.254196,620.168213 132.373856,620.051880 132.482056,620.351868 
	C134.204849,625.128357 137.595779,622.546875 140.539780,622.527893 
	C141.923279,627.461792 146.304703,623.762634 149.570267,625.527527 
	C149.769836,626.263367 150.124588,627.571289 150.478043,628.874512 
	C153.983337,628.551941 157.291885,626.126526 160.886047,629.647461 
	C162.186584,630.921509 165.782700,629.852234 168.066193,630.421448 
	C170.669205,631.167603 173.885056,631.204956 175.743607,632.812012 
	C179.271576,635.862549 183.174927,634.366943 186.851227,635.111450 
	C187.660065,635.275269 188.161163,636.958557 188.938126,638.147400 
	C194.969406,635.176819 198.989563,639.131775 203.230469,642.492310 
	C203.691925,642.858032 204.451614,642.892029 205.086853,642.986572 
	C209.697861,643.672302 214.386475,644.019287 218.907288,645.082520 
	C224.697632,646.444336 231.134598,647.212402 235.856308,650.378662 
	C240.958374,653.799927 246.467636,653.235596 251.566299,655.081116 
	C255.197800,656.395691 258.564941,658.441040 262.048248,660.163879 
	C262.582947,660.428345 263.085571,660.772827 263.640778,660.978210 
	C268.917999,662.930725 274.154938,665.010986 279.504639,666.741699 
	C282.719482,667.781677 286.975128,667.281006 289.218170,669.240784 
	C292.289459,671.924316 297.224823,670.220337 299.259705,674.384277 
	C299.483826,674.842896 300.761383,674.712463 301.481720,675.017273 
	C303.333466,675.801025 305.146667,676.675903 306.681793,678.356262 
	C311.071930,679.559753 315.462036,680.763245 319.852173,681.966736 
	C319.794769,682.460083 319.737366,682.953369 319.679993,683.446716 
	C307.052307,684.633972 294.414825,685.731506 281.807953,687.109314 
	C280.005341,687.306335 278.402618,688.978638 276.614136,689.752808 
	C274.590912,690.628601 272.513855,691.636597 270.370300,691.929810 
	C263.895752,692.815308 257.375092,693.360107 250.879944,694.103516 
	C250.113693,694.191223 249.298553,694.556702 248.667633,695.015564 
	C240.470520,700.976746 230.391922,700.426514 221.219406,702.998413 
	C219.514206,703.476501 217.815125,703.976440 216.031876,704.866577 
z"/>
<path fill="#000000" opacity="1.000000" stroke="none" 
	d="
M250.782623,1014.974731 
	C257.027802,1013.031494 261.557190,1008.299133 268.602966,1008.515015 
	C272.615448,1008.637817 276.638580,1005.123047 280.835938,1003.825562 
	C283.081451,1003.131409 284.984222,1000.250122 288.278473,1002.710266 
	C289.354523,1003.513916 292.663940,1001.449463 294.895813,1000.556458 
	C299.006073,998.911804 301.964172,994.803223 307.704651,996.624573 
	C310.062561,997.372742 313.779968,994.371643 316.678406,992.723328 
	C319.352661,991.202515 321.372009,989.790161 325.135315,990.560669 
	C327.942017,991.135315 331.513245,988.090759 334.706451,986.578674 
	C335.471252,986.216431 336.316437,984.938782 336.735229,985.099121 
	C340.915955,986.700012 343.575012,983.879333 346.799011,982.200623 
	C349.260590,980.918884 352.309448,980.811401 355.022583,979.947632 
	C356.445007,979.494751 357.744720,978.598755 359.031738,977.794006 
	C360.385986,976.947144 361.746643,975.088257 362.951843,975.208008 
	C367.363464,975.646423 369.912384,973.005676 373.025330,970.681824 
	C376.591980,968.019348 377.898163,971.901123 378.876556,974.086243 
	C382.227112,981.569214 385.134216,989.249390 388.340881,996.799011 
	C389.467957,999.452454 386.129486,1005.156738 382.453552,1006.874329 
	C378.440674,1008.749451 374.725708,1011.994202 370.563873,1012.659729 
	C362.883026,1013.887939 357.822968,1020.558472 349.892609,1021.252075 
	C346.534149,1021.545898 343.187592,1024.267578 340.234253,1026.430298 
	C333.834808,1031.116089 327.011475,1035.511719 321.631287,1041.222290 
	C315.959045,1047.242920 311.765015,1054.656250 307.257660,1060.993530 
	C300.492645,1057.975220 293.452148,1054.138916 285.951721,1051.741699 
	C281.266266,1050.244141 275.880188,1050.586060 270.821136,1050.694214 
	C263.507233,1050.850220 256.162079,1051.213867 248.916916,1052.155762 
	C245.691772,1052.574951 242.729904,1054.772949 239.543274,1055.853271 
	C238.229752,1056.298462 236.639328,1055.927002 235.053040,1055.145752 
	C227.713867,1058.752563 220.286743,1062.193237 213.063858,1066.019531 
	C207.486710,1068.973999 201.216568,1071.506470 197.016754,1075.908081 
	C193.339462,1079.761963 189.171814,1082.212769 184.488922,1085.212036 
	C175.970825,1071.643311 167.462021,1058.089355 159.262970,1045.028809 
	C164.475754,1042.361938 169.241592,1039.774292 174.156342,1037.509644 
	C175.454178,1036.911621 177.210892,1037.295776 178.757568,1037.257446 
	C179.605255,1037.236450 180.580673,1037.556763 181.282730,1037.241943 
	C186.400787,1034.947144 191.464752,1032.531616 196.543762,1030.149780 
	C197.276825,1029.806152 198.087326,1029.017334 198.713409,1029.147827 
	C207.115829,1030.898193 213.206757,1025.452026 220.073013,1022.433044 
	C220.515686,1022.238464 221.223114,1021.881958 221.442993,1022.057373 
	C225.967682,1025.668091 229.061569,1021.367554 232.670013,1020.061401 
	C238.459122,1017.965820 243.795151,1014.307129 250.782623,1014.974731 
z"/>
<path fill="#000000" opacity="1.000000" stroke="none" 
	d="
M425.549622,1136.781494 
	C421.365204,1135.719360 418.328888,1136.634888 415.013611,1139.161621 
	C412.627716,1140.980103 408.920807,1141.002686 405.873444,1142.033813 
	C402.865570,1143.051636 399.798798,1144.060669 397.029419,1145.571289 
	C394.281158,1147.070679 391.906769,1148.128418 388.458038,1148.419922 
	C383.797699,1148.813843 383.549866,1145.968506 382.113556,1143.625732 
	C376.037201,1133.713989 370.004517,1123.775391 363.987701,1113.827393 
	C361.888824,1110.357178 359.382629,1107.014648 358.007446,1103.266968 
	C357.083282,1100.748413 352.455353,1098.198120 356.921967,1094.796753 
	C357.238586,1094.555664 357.092926,1093.485107 356.924164,1092.864868 
	C355.707336,1088.392944 357.807495,1081.178345 361.701019,1079.138550 
	C367.921448,1075.879517 372.662750,1069.683960 380.588440,1069.634888 
	C381.813690,1069.627441 382.904449,1067.602905 384.274109,1067.089844 
	C387.063171,1066.045288 390.259705,1065.869385 392.814636,1064.470337 
	C396.540131,1062.430298 400.192169,1059.982300 403.225067,1057.038208 
	C405.649109,1054.685181 407.684143,1052.622192 411.363159,1052.884155 
	C412.283081,1052.949707 413.295197,1051.720581 414.049286,1051.227539 
	C423.701019,1066.102661 433.130066,1081.094482 443.054871,1095.750366 
	C448.599762,1103.938477 455.000946,1111.544312 460.920471,1119.483887 
	C461.610962,1120.410156 461.690033,1121.792114 462.052551,1122.962769 
	C459.611877,1121.947266 459.175018,1128.465332 455.790466,1124.607056 
	C455.347656,1124.102173 453.387146,1124.519409 452.367004,1125.006714 
	C449.166046,1126.535522 445.934204,1129.919312 442.975586,1129.655396 
	C435.713684,1129.007935 431.474854,1134.115723 425.549622,1136.781494 
z"/>
<path fill="#000000" opacity="1.000000" stroke="none" 
	d="
M326.797028,1170.982544 
	C325.324615,1171.661621 324.295105,1172.656128 323.107056,1172.910767 
	C320.752411,1173.415649 319.345276,1175.968872 315.768494,1174.524902 
	C313.652405,1173.670654 309.834229,1177.528564 306.600555,1178.811646 
	C303.202698,1180.159546 299.510864,1180.759155 296.092529,1182.065308 
	C292.982147,1183.253784 289.791138,1184.573608 287.128448,1186.512329 
	C282.997070,1189.520386 278.257812,1189.212158 273.678955,1189.833496 
	C272.908386,1189.938110 271.784363,1189.140869 271.171143,1188.451294 
	C259.194305,1174.984375 244.764084,1163.736694 234.882889,1148.375366 
	C233.712250,1146.555420 232.524506,1144.746460 231.106049,1142.565674 
	C233.370758,1140.913940 235.952103,1138.829346 232.385483,1135.597290 
	C232.284500,1135.505737 233.701004,1134.168701 233.836258,1133.320801 
	C235.130142,1125.210327 241.633560,1122.130981 247.767517,1118.673340 
	C252.421814,1116.049561 256.876923,1112.921265 261.800262,1110.980225 
	C264.983765,1109.725098 268.866699,1110.322144 272.409058,1109.874512 
	C275.401337,1109.496338 278.077850,1112.708374 281.165955,1110.532471 
	C281.296112,1110.440796 281.531555,1110.284424 281.583313,1110.326050 
	C285.052734,1113.110718 288.875885,1115.574951 291.851654,1118.816895 
	C294.352783,1121.541748 295.334412,1125.998047 300.306305,1124.508057 
	C303.159271,1129.604370 305.981415,1134.894165 309.039581,1140.043579 
	C312.567993,1145.984741 316.201233,1151.869873 319.986603,1157.649902 
	C322.551025,1161.565674 325.488861,1165.235840 328.139282,1169.098511 
	C328.325684,1169.370117 327.515167,1170.325806 326.797028,1170.982544 
z"/>
<path fill="#000000" opacity="1.000000" stroke="none" 
	d="
M140.759460,432.596832 
	C144.158722,426.113098 147.353668,419.960175 150.575226,413.821228 
	C153.874344,407.534485 156.985107,401.136322 160.560455,395.009918 
	C166.894562,384.156403 173.517853,373.471619 180.210556,362.401337 
	C202.109497,379.833099 225.261169,394.041870 247.508713,410.381226 
	C243.031525,410.922516 237.077713,409.867218 234.394867,412.348602 
	C229.334564,417.028778 220.755096,412.095764 217.471924,419.659332 
	C217.280472,420.100433 215.615189,419.921906 214.633087,419.996094 
	C211.084122,420.264313 207.123550,418.723480 204.734589,423.376709 
	C204.224716,424.369812 200.659012,423.543610 198.632935,424.066437 
	C195.450806,424.887634 192.372208,426.119232 189.269272,427.231506 
	C188.515335,427.501740 187.834854,428.321411 187.125061,428.315857 
	C181.240265,428.270142 176.432693,432.631470 171.438614,433.241913 
	C165.033646,434.024872 160.130676,437.832672 153.986298,438.746704 
	C147.949219,439.644775 142.165512,442.246033 136.270630,444.099884 
	C135.928253,443.603882 135.585876,443.107880 135.243500,442.611877 
	C137.017944,439.385834 138.792389,436.159790 140.759460,432.596832 
z"/>
<path fill="#4FD9FB" opacity="1.000000" stroke="none" 
	d="
M862.782837,1173.999756 
	C857.972595,1174.317505 853.620850,1174.634888 849.269165,1174.952393 
	C849.135071,1174.659424 849.000916,1174.366455 848.866821,1174.073486 
	C853.823792,1170.393921 858.845398,1166.797974 863.723694,1163.016968 
	C872.702881,1156.057495 882.042786,1149.478516 890.424377,1141.852661 
	C903.285583,1130.151245 915.907837,1118.114868 927.789124,1105.431641 
	C937.137451,1095.452026 945.579651,1084.552856 953.756287,1073.565186 
	C962.569153,1061.722534 970.947998,1049.519409 978.865845,1037.060303 
	C984.787598,1027.742065 989.801697,1017.834290 994.993103,1008.068420 
	C1000.642883,997.440125 1006.368713,986.829163 1011.420837,975.914124 
	C1015.158264,967.839417 1017.869812,959.289856 1021.038025,950.951782 
	C1024.684204,941.355835 1028.602295,931.852112 1031.896729,922.136902 
	C1034.946167,913.143799 1037.352295,903.931396 1039.996582,894.802490 
	C1042.188599,887.234680 1044.609375,879.716492 1046.394531,872.051941 
	C1048.556763,862.768860 1050.166382,853.356812 1051.997559,843.997070 
	C1053.488525,836.376526 1055.088013,828.773743 1056.387817,821.120361 
	C1057.451172,814.858215 1058.299561,808.549500 1058.967651,802.232300 
	C1060.396362,788.721252 1061.692993,775.195740 1062.946655,761.667175 
	C1063.432739,756.422668 1063.893921,751.156555 1063.953003,745.895630 
	C1064.097290,733.065918 1064.323975,720.223328 1063.926270,707.404297 
	C1063.284668,686.725586 1062.680908,666.049255 1059.133423,645.551453 
	C1056.857056,632.398926 1056.045898,618.995789 1053.871704,605.821594 
	C1052.247070,595.977295 1049.464111,586.325989 1047.251465,576.576355 
	C1045.466553,568.711792 1044.084595,560.740295 1041.949951,552.973999 
	C1038.536743,540.555237 1034.979492,528.154968 1030.855347,515.959229 
	C1027.528198,506.120422 1023.369934,496.555511 1019.406433,486.940796 
	C1014.709473,475.546631 1010.174500,464.065002 1004.921753,452.926666 
	C1000.022583,442.538116 994.462708,432.444458 988.842102,422.418060 
	C984.169556,414.082855 979.217346,405.882233 973.973511,397.894775 
	C966.689697,386.799866 959.478333,375.604889 951.390198,365.104156 
	C942.071533,353.006042 932.370789,341.103180 921.841980,330.063629 
	C911.060974,318.759705 899.399170,308.227448 887.530518,298.048004 
	C875.165649,287.442841 862.093262,277.662567 848.144592,266.579620 
	C856.564026,267.674683 863.913757,268.324890 871.138916,269.652527 
	C879.071228,271.110077 886.982178,272.867462 894.729248,275.096130 
	C901.977112,277.181122 909.105957,279.791656 916.088928,282.654480 
	C923.004272,285.489594 929.792053,288.697845 936.425293,292.147247 
	C955.064331,301.839813 972.329773,313.738770 988.299500,327.264526 
	C998.934753,336.272217 1008.964539,346.224731 1018.005981,356.828247 
	C1030.263428,371.203552 1041.627197,386.378601 1052.797241,401.633026 
	C1063.980591,416.905487 1073.360229,433.328674 1081.237915,450.576782 
	C1085.150635,459.143341 1089.268311,467.619080 1093.037109,476.247711 
	C1097.856689,487.281616 1102.825684,498.278534 1106.971313,509.570038 
	C1110.839111,520.104736 1113.937622,530.941406 1116.970459,541.758484 
	C1120.975220,556.042786 1124.916382,570.361145 1128.256104,584.810303 
	C1130.696411,595.368469 1132.213501,606.146240 1133.969116,616.854431 
	C1135.205566,624.396118 1136.213501,631.977356 1137.205933,639.556335 
	C1137.905762,644.900391 1138.346191,650.277954 1139.010010,655.627197 
	C1142.506958,683.805420 1142.459961,712.135620 1141.808472,740.417908 
	C1141.423462,757.122498 1141.570801,773.929749 1138.185425,790.522827 
	C1136.557983,798.499695 1136.957275,806.868347 1135.918701,814.993164 
	C1134.912354,822.864380 1133.401978,830.683411 1131.821411,838.466125 
	C1129.344604,850.661072 1126.787720,862.845032 1123.945679,874.958740 
	C1122.034424,883.105469 1119.656494,891.147156 1117.335205,899.191956 
	C1114.617554,908.609924 1112.037231,918.084595 1108.841919,927.343018 
	C1105.383545,937.363586 1101.450195,947.231140 1097.419678,957.040405 
	C1093.114746,967.517273 1089.168213,978.235413 1083.786743,988.154663 
	C1075.039551,1004.277832 1065.807983,1020.201782 1055.741333,1035.527100 
	C1046.302002,1049.897217 1036.224609,1063.984863 1025.110718,1077.078613 
	C1014.978333,1089.016113 1003.381653,1099.780884 991.860229,1110.446777 
	C982.978577,1118.668945 973.694275,1126.642456 963.714233,1133.442871 
	C952.239868,1141.261353 940.077271,1148.208496 927.685547,1154.492920 
	C919.481140,1158.653809 910.478638,1161.429688 901.599792,1164.027100 
	C888.925720,1167.734497 876.037964,1170.710938 862.782837,1173.999756 
z"/>
</svg>